<?xml version="1.0" encoding="utf-8"?>
<!-- Generator: Adobe Illustrator 16.0.3, SVG Export Plug-In . SVG Version: 6.00 Build 0)  -->
<!DOCTYPE svg PUBLIC "-//W3C//DTD SVG 1.1//EN" "http://www.w3.org/Graphics/SVG/1.1/DTD/svg11.dtd">
<svg version="1.1" id="Ebene_1" xmlns="http://www.w3.org/2000/svg" xmlns:xlink="http://www.w3.org/1999/xlink" x="0px" y="0px"
	 width="560.021px" height="500px" viewBox="0 0 560.021 500" enable-background="new 0 0 560.021 500" xml:space="preserve">
<g>
	<g opacity="0.1">
		<rect x="0.001" y="29.999" width="141" height="25.001"/>
	</g>
	<g>
		<rect x="0.001" y="28.999" fill="#F1F1F1" width="141" height="25.001"/>
	</g>
</g>
<g>
	<path fill="#777777" d="M41.208,38.498h-2.941v-0.56h6.527v0.56h-2.941v8.671h-0.645V38.498z"/>
	<path fill="#777777" d="M45.673,42.518c0-2.914,1.583-4.749,3.796-4.749c2.227,0,3.81,1.835,3.81,4.749
		c0,2.927-1.583,4.818-3.81,4.818C47.256,47.336,45.673,45.445,45.673,42.518z M52.592,42.518c0-2.549-1.247-4.16-3.124-4.16
		s-3.124,1.611-3.124,4.16c0,2.563,1.247,4.23,3.124,4.23S52.592,45.082,52.592,42.518z"/>
	<path fill="#777777" d="M54.801,42.518c0-2.914,1.583-4.749,3.796-4.749c2.227,0,3.81,1.835,3.81,4.749
		c0,2.927-1.583,4.818-3.81,4.818C56.384,47.336,54.801,45.445,54.801,42.518z M61.72,42.518c0-2.549-1.247-4.16-3.124-4.16
		s-3.124,1.611-3.124,4.16c0,2.563,1.247,4.23,3.124,4.23S61.72,45.082,61.72,42.518z"/>
	<path fill="#777777" d="M64.517,37.938h0.644v8.67h4.258v0.561h-4.902V37.938z"/>
	<path fill="#777777" d="M71.055,37.938h2.493c1.863,0,3.054,0.7,3.054,2.241c0,0.966-0.561,1.737-1.639,2.017v0.056
		c1.358,0.196,2.199,0.952,2.199,2.227c0,1.779-1.345,2.689-3.432,2.689h-2.675V37.938z M73.296,42c1.891,0,2.661-0.616,2.661-1.835
		c0-1.19-0.896-1.695-2.591-1.695h-1.667V42H73.296z M73.562,46.636c1.835,0,2.969-0.672,2.969-2.157
		c0-1.317-1.078-1.961-2.969-1.961h-1.863v4.118H73.562z"/>
	<path fill="#777777" d="M83.292,44.003h-3.656l-1.093,3.166h-0.645l3.25-9.231h0.645l3.25,9.231h-0.672L83.292,44.003z
		 M83.11,43.457l-0.588-1.723c-0.378-1.092-0.7-2.059-1.022-3.194h-0.056c-0.322,1.135-0.644,2.102-1.022,3.194l-0.588,1.723H83.11z
		"/>
	<path fill="#777777" d="M91.623,47.168l-2.507-4.244h-1.961v4.244H86.51v-9.231h2.647c1.835,0,3.025,0.672,3.025,2.438
		c0,1.471-0.911,2.325-2.367,2.507l2.549,4.286H91.623z M88.989,42.392c1.625,0,2.536-0.659,2.536-2.017
		c0-1.387-0.911-1.891-2.536-1.891h-1.835v3.908H88.989z"/>
	<path fill="#777777" d="M92.979,43.4h3.082v0.546h-3.082V43.4z"/>
	<path fill="#777777" d="M97.962,37.938h0.644v8.67h4.258v0.561h-4.902V37.938z"/>
</g>
<g>
	<g opacity="0.1">
		<rect y="65" width="59.412" height="25.001"/>
	</g>
	<g>
		<rect y="64" fill="#F1F1F1" width="59.412" height="25.001"/>
	</g>
</g>
<g>
	<path fill="#777777" d="M14.573,72.938h0.644v8.67h4.258v0.561h-4.902V72.938z"/>
	<path fill="#777777" d="M20.243,77.519c0-2.914,1.583-4.749,3.796-4.749c2.227,0,3.81,1.835,3.81,4.749
		c0,2.927-1.583,4.818-3.81,4.818C21.826,82.337,20.243,80.446,20.243,77.519z M27.163,77.519c0-2.549-1.247-4.16-3.124-4.16
		s-3.124,1.611-3.124,4.16c0,2.563,1.247,4.23,3.124,4.23S27.163,80.083,27.163,77.519z"/>
	<path fill="#777777" d="M33.461,72.771c1.232,0,2.017,0.588,2.507,1.106l-0.378,0.42c-0.476-0.519-1.121-0.938-2.129-0.938
		c-2.115,0-3.418,1.611-3.418,4.174c0,2.563,1.232,4.216,3.333,4.216c0.841,0,1.625-0.252,2.073-0.7v-2.872h-2.213v-0.546h2.829
		v3.656c-0.574,0.616-1.526,1.05-2.745,1.05c-2.367,0-3.95-1.863-3.95-4.805C29.371,74.605,31.01,72.771,33.461,72.771z"/>
	<path fill="#777777" d="M37.841,77.519c0-2.914,1.583-4.749,3.796-4.749c2.227,0,3.81,1.835,3.81,4.749
		c0,2.927-1.583,4.818-3.81,4.818C39.424,82.337,37.841,80.446,37.841,77.519z M44.76,77.519c0-2.549-1.247-4.16-3.124-4.16
		s-3.124,1.611-3.124,4.16c0,2.563,1.247,4.23,3.124,4.23S44.76,80.083,44.76,77.519z"/>
</g>
<g>
	<g opacity="0.1">
		<rect x="232.59" y="65" width="59.412" height="25.001"/>
	</g>
	<g>
		<rect x="232.59" y="64" fill="#F1F1F1" width="59.412" height="25.001"/>
	</g>
</g>
<g>
	<path fill="#777777" d="M240.085,80.502c0.672,0.756,1.639,1.247,2.704,1.247c1.415,0,2.297-0.756,2.297-1.849
		c0-1.149-0.743-1.527-1.653-1.933l-1.401-0.63c-0.813-0.35-1.877-0.925-1.877-2.297c0-1.331,1.148-2.269,2.689-2.269
		c1.106,0,2.003,0.504,2.563,1.106l-0.364,0.434c-0.546-0.574-1.275-0.952-2.199-0.952c-1.219,0-2.045,0.644-2.045,1.653
		c0,1.064,0.925,1.471,1.597,1.779l1.4,0.616c1.037,0.462,1.947,1.037,1.947,2.452c0,1.415-1.163,2.479-2.956,2.479
		c-1.345,0-2.396-0.574-3.124-1.387L240.085,80.502z"/>
	<path fill="#777777" d="M247.674,72.938h5.057v0.56h-4.413v3.488h3.698v0.56h-3.698v4.062h4.553v0.561h-5.197V72.938z"/>
	<path fill="#777777" d="M259.03,79.004h-3.656l-1.093,3.166h-0.645l3.25-9.231h0.645l3.25,9.231h-0.672L259.03,79.004z
		 M258.848,78.458l-0.588-1.723c-0.378-1.092-0.7-2.059-1.022-3.194h-0.056c-0.322,1.135-0.644,2.102-1.022,3.194l-0.588,1.723
		H258.848z"/>
	<path fill="#777777" d="M267.36,82.169l-2.507-4.244h-1.961v4.244h-0.644v-9.231h2.647c1.835,0,3.025,0.672,3.025,2.438
		c0,1.471-0.911,2.325-2.367,2.507l2.549,4.286H267.36z M264.727,77.393c1.625,0,2.536-0.659,2.536-2.017
		c0-1.387-0.911-1.891-2.536-1.891h-1.835v3.908H264.727z"/>
	<path fill="#777777" d="M273.449,72.771c1.064,0,1.905,0.532,2.395,1.106l-0.392,0.42c-0.49-0.561-1.163-0.938-2.003-0.938
		c-2.031,0-3.278,1.611-3.278,4.174c0,2.563,1.232,4.216,3.222,4.216c0.953,0,1.653-0.378,2.325-1.134l0.392,0.406
		c-0.714,0.813-1.555,1.316-2.745,1.316c-2.283,0-3.866-1.863-3.866-4.805C269.499,74.605,271.096,72.771,273.449,72.771z"/>
	<path fill="#777777" d="M277.983,72.938h0.644v4.048h4.945v-4.048h0.645v9.231h-0.645v-4.623h-4.945v4.623h-0.644V72.938z"/>
</g>
<g>
	<g opacity="0.1">
		<rect x="69.412" y="65" width="151.911" height="25.001"/>
	</g>
	<g>
		<rect x="69.412" y="64" fill="#F1F1F1" width="151.911" height="25.001"/>
	</g>
</g>
<g>
	<path fill="#777777" d="M129.29,72.938h0.91l1.933,5.421l0.729,2.045h0.056l0.7-2.045l1.933-5.421h0.911v9.231h-0.63v-6.065
		c0-0.756,0.042-1.723,0.084-2.493h-0.056l-0.729,2.031l-1.975,5.519h-0.574l-1.989-5.519l-0.729-2.031h-0.056
		c0.042,0.771,0.084,1.737,0.084,2.493v6.065h-0.602V72.938z"/>
	<path fill="#777777" d="M139.173,72.938h5.057v0.56h-4.413v3.488h3.698v0.56h-3.698v4.062h4.553v0.561h-5.197V72.938z"/>
	<path fill="#777777" d="M146.383,72.938h0.672l3.894,6.514l1.037,1.835h0.056c-0.028-0.896-0.084-1.793-0.084-2.689v-5.659h0.617
		v9.231h-0.672l-3.895-6.514l-1.036-1.835h-0.056c0.028,0.883,0.084,1.723,0.084,2.62v5.729h-0.616V72.938z"/>
	<path fill="#777777" d="M155.259,72.938h0.645v5.617c0,2.451,1.148,3.193,2.451,3.193c1.331,0,2.521-0.742,2.521-3.193v-5.617
		h0.603v5.687c0,2.886-1.527,3.712-3.124,3.712c-1.583,0-3.096-0.826-3.096-3.712V72.938z"/>
</g>
<g>
	<g opacity="0.1">
		<rect x="69.412" y="205.004" width="151.911" height="25.001"/>
	</g>
	<g>
		<rect x="69.412" y="204.004" fill="#F1F1F1" width="151.911" height="25.001"/>
	</g>
</g>
<g>
	<path fill="#777777" d="M118.131,212.942h0.91l1.933,5.421l0.729,2.045h0.056l0.7-2.045l1.933-5.421h0.911v9.231h-0.63v-6.065
		c0-0.756,0.042-1.723,0.084-2.493h-0.056l-0.729,2.031l-1.975,5.519h-0.574l-1.989-5.519l-0.729-2.031h-0.056
		c0.042,0.771,0.084,1.737,0.084,2.493v6.065h-0.602V212.942z"/>
	<path fill="#777777" d="M132.161,219.008h-3.656l-1.093,3.166h-0.644l3.25-9.231h0.645l3.25,9.231h-0.672L132.161,219.008z
		 M131.979,218.461l-0.588-1.723c-0.378-1.092-0.7-2.059-1.022-3.194h-0.056c-0.322,1.135-0.644,2.102-1.022,3.194l-0.588,1.723
		H131.979z"/>
	<path fill="#777777" d="M135.379,212.942h0.644v9.231h-0.644V212.942z"/>
	<path fill="#777777" d="M138.739,212.942h0.672l3.894,6.514l1.037,1.835h0.056c-0.028-0.896-0.084-1.793-0.084-2.689v-5.659h0.617
		v9.231h-0.672l-3.895-6.514l-1.036-1.835h-0.056c0.028,0.883,0.084,1.723,0.084,2.62v5.729h-0.616V212.942z"/>
	<path fill="#777777" d="M146.844,218.405h3.082v0.546h-3.082V218.405z"/>
	<path fill="#777777" d="M153.313,213.502h-2.941v-0.56h6.527v0.56h-2.941v8.671h-0.645V213.502z"/>
	<path fill="#777777" d="M157.778,217.523c0-2.914,1.583-4.749,3.796-4.749c2.227,0,3.81,1.835,3.81,4.749
		c0,2.927-1.583,4.818-3.81,4.818C159.361,222.341,157.778,220.45,157.778,217.523z M164.698,217.523c0-2.549-1.247-4.16-3.124-4.16
		s-3.124,1.611-3.124,4.16c0,2.563,1.247,4.23,3.124,4.23S164.698,220.086,164.698,217.523z"/>
	<path fill="#777777" d="M167.495,212.942h2.521c2.06,0,3.292,0.672,3.292,2.577c0,1.807-1.232,2.689-3.292,2.689h-1.877v3.964
		h-0.644V212.942z M169.862,217.663c1.877,0,2.788-0.63,2.788-2.144c0-1.555-0.911-2.031-2.788-2.031h-1.723v4.174H169.862z"/>
</g>
<g>
	<g opacity="0.1">
		<rect x="0.001" y="205.668" width="25.001" height="95.42"/>
	</g>
	<g>
		<rect x="0.001" y="204.668" fill="#F1F1F1" width="25.001" height="95.42"/>
	</g>
</g>
<g>
	<path fill="#777777" d="M16.503,281.609c0.756-0.672,1.247-1.639,1.247-2.703c0-1.415-0.756-2.298-1.849-2.298
		c-1.149,0-1.527,0.743-1.933,1.653l-0.63,1.4c-0.35,0.813-0.925,1.877-2.297,1.877c-1.331,0-2.269-1.148-2.269-2.689
		c0-1.106,0.504-2.003,1.106-2.563l0.434,0.363c-0.574,0.547-0.952,1.275-0.952,2.199c0,1.219,0.644,2.045,1.653,2.045
		c1.064,0,1.471-0.924,1.779-1.597l0.616-1.4c0.462-1.036,1.037-1.947,2.452-1.947c1.415,0,2.479,1.163,2.479,2.956
		c0,1.344-0.574,2.395-1.387,3.123L16.503,281.609z"/>
	<path fill="#777777" d="M8.939,274.021v-0.645h9.231v0.645H8.939z"/>
	<path fill="#777777" d="M8.939,270.661v-2.144c0-2.843,1.793-4.188,4.581-4.188c2.801,0,4.65,1.345,4.65,4.174v2.157H8.939z
		 M17.624,268.588c0-2.508-1.695-3.586-4.104-3.586c-2.396,0-4.034,1.078-4.034,3.586v1.43h8.138V268.588z"/>
	<path fill="#777777" d="M8.939,262.205v-5.057H9.5v4.412h3.488v-3.697h0.56v3.697h4.062v-4.553h0.561v5.197H8.939z"/>
	<path fill="#777777" d="M8.939,254.995v-2.493c0-1.863,0.7-3.054,2.241-3.054c0.966,0,1.737,0.561,2.017,1.64h0.056
		c0.196-1.359,0.952-2.2,2.227-2.2c1.779,0,2.689,1.344,2.689,3.432v2.675H8.939z M13.001,252.754c0-1.891-0.616-2.661-1.835-2.661
		c-1.19,0-1.695,0.896-1.695,2.591v1.668h3.53V252.754z M17.638,252.488c0-1.836-0.672-2.97-2.157-2.97
		c-1.317,0-1.961,1.079-1.961,2.97v1.863h4.118V252.488z"/>
	<path fill="#777777" d="M15.005,242.757v3.656l3.166,1.093v0.644l-9.231-3.25v-0.645l9.231-3.25v0.672L15.005,242.757z
		 M14.458,242.939l-1.723,0.588c-1.092,0.378-2.059,0.7-3.194,1.022v0.056c1.135,0.322,2.102,0.644,3.194,1.022l1.723,0.588V242.939
		z"/>
	<path fill="#777777" d="M18.17,234.427l-4.244,2.507v1.961h4.244v0.644H8.939v-2.647c0-1.835,0.672-3.025,2.438-3.025
		c1.471,0,2.325,0.911,2.507,2.367l4.286-2.549V234.427z M13.394,237.061c0-1.625-0.659-2.536-2.017-2.536
		c-1.387,0-1.891,0.911-1.891,2.536v1.835h3.908V237.061z"/>
	<path fill="#777777" d="M14.402,233.072v-3.082h0.546v3.082H14.402z"/>
	<path fill="#777777" d="M15.005,223.941v3.656l3.166,1.093v0.645l-9.231-3.25v-0.645l9.231-3.25v0.672L15.005,223.941z
		 M14.458,224.124l-1.723,0.588c-1.092,0.378-2.059,0.7-3.194,1.022v0.056c1.135,0.322,2.102,0.644,3.194,1.022l1.723,0.588V224.124
		z"/>
</g>
<g>
	<g opacity="0.1">
		<rect x="35.002" y="205.668" width="25.001" height="95.42"/>
	</g>
	<g>
		<rect x="35.002" y="204.668" fill="#F1F1F1" width="25.001" height="95.42"/>
	</g>
</g>
<g>
	<path fill="#777777" d="M51.504,281.974c0.756-0.673,1.247-1.64,1.247-2.704c0-1.414-0.756-2.297-1.849-2.297
		c-1.149,0-1.527,0.742-1.933,1.652l-0.63,1.401c-0.35,0.813-0.925,1.877-2.297,1.877c-1.331,0-2.269-1.148-2.269-2.689
		c0-1.106,0.504-2.003,1.106-2.563l0.434,0.364c-0.574,0.546-0.952,1.274-0.952,2.199c0,1.219,0.644,2.046,1.653,2.046
		c1.064,0,1.471-0.926,1.779-1.598l0.616-1.4c0.462-1.037,1.037-1.947,2.452-1.947c1.415,0,2.479,1.162,2.479,2.955
		c0,1.346-0.574,2.396-1.387,3.124L51.504,281.974z"/>
	<path fill="#777777" d="M43.94,274.385v-0.644h9.231v0.644H43.94z"/>
	<path fill="#777777" d="M43.94,271.025v-2.143c0-2.844,1.793-4.188,4.581-4.188c2.801,0,4.65,1.345,4.65,4.174v2.157H43.94z
		 M52.625,268.953c0-2.508-1.695-3.586-4.104-3.586c-2.396,0-4.034,1.078-4.034,3.586v1.428h8.138V268.953z"/>
	<path fill="#777777" d="M43.94,262.569v-5.057h0.56v4.413h3.488v-3.699h0.56v3.699h4.062v-4.553h0.561v5.196H43.94z"/>
	<path fill="#777777" d="M43.94,255.359v-2.493c0-1.862,0.7-3.054,2.241-3.054c0.966,0,1.737,0.561,2.017,1.639h0.056
		c0.196-1.358,0.952-2.199,2.227-2.199c1.779,0,2.689,1.345,2.689,3.431v2.676H43.94z M48.002,253.118
		c0-1.892-0.616-2.661-1.835-2.661c-1.19,0-1.695,0.896-1.695,2.592v1.666h3.53V253.118z M52.639,252.852
		c0-1.834-0.672-2.969-2.157-2.969c-1.317,0-1.961,1.079-1.961,2.969v1.863h4.118V252.852z"/>
	<path fill="#777777" d="M50.006,243.122v3.656l3.166,1.093v0.644l-9.231-3.25v-0.645l9.231-3.25v0.672L50.006,243.122z
		 M49.459,243.304l-1.723,0.588c-1.092,0.378-2.059,0.7-3.194,1.022v0.056c1.135,0.322,2.102,0.644,3.194,1.022l1.723,0.588V243.304
		z"/>
	<path fill="#777777" d="M53.171,234.791l-4.244,2.507v1.961h4.244v0.644H43.94v-2.647c0-1.835,0.672-3.025,2.438-3.025
		c1.471,0,2.325,0.911,2.507,2.367l4.286-2.549V234.791z M48.395,237.425c0-1.625-0.659-2.536-2.017-2.536
		c-1.387,0-1.891,0.911-1.891,2.536v1.835h3.908V237.425z"/>
	<path fill="#777777" d="M49.403,233.436v-3.082h0.546v3.082H49.403z"/>
	<path fill="#777777" d="M43.94,228.452v-2.493c0-1.863,0.7-3.054,2.241-3.054c0.966,0,1.737,0.561,2.017,1.639h0.056
		c0.196-1.358,0.952-2.199,2.227-2.199c1.779,0,2.689,1.345,2.689,3.432v2.675H43.94z M48.002,226.21
		c0-1.891-0.616-2.661-1.835-2.661c-1.19,0-1.695,0.896-1.695,2.591v1.667h3.53V226.21z M52.639,225.944
		c0-1.835-0.672-2.969-2.157-2.969c-1.317,0-1.961,1.078-1.961,2.969v1.863h4.118V225.944z"/>
</g>
<g>
	<g opacity="0.1">
		<rect x="232.295" y="205.668" width="25.001" height="95.42"/>
	</g>
	<g>
		<rect x="232.295" y="204.668" fill="#F1F1F1" width="25.001" height="95.42"/>
	</g>
</g>
<g>
	<path fill="#777777" d="M248.797,281.609c0.756-0.672,1.247-1.639,1.247-2.703c0-1.415-0.756-2.298-1.849-2.298
		c-1.149,0-1.527,0.743-1.933,1.653l-0.63,1.4c-0.35,0.813-0.925,1.877-2.297,1.877c-1.331,0-2.269-1.148-2.269-2.689
		c0-1.106,0.504-2.003,1.106-2.563l0.434,0.363c-0.574,0.547-0.952,1.275-0.952,2.199c0,1.219,0.644,2.045,1.653,2.045
		c1.064,0,1.471-0.924,1.779-1.597l0.616-1.4c0.462-1.036,1.037-1.947,2.452-1.947c1.415,0,2.479,1.163,2.479,2.956
		c0,1.344-0.574,2.395-1.387,3.123L248.797,281.609z"/>
	<path fill="#777777" d="M241.233,274.021v-0.645h9.231v0.645H241.233z"/>
	<path fill="#777777" d="M241.233,270.661v-2.144c0-2.843,1.793-4.188,4.581-4.188c2.801,0,4.65,1.345,4.65,4.174v2.157H241.233z
		 M249.918,268.588c0-2.508-1.695-3.586-4.104-3.586c-2.396,0-4.034,1.078-4.034,3.586v1.43h8.138V268.588z"/>
	<path fill="#777777" d="M241.233,262.205v-5.057h0.56v4.412h3.488v-3.697h0.56v3.697h4.062v-4.553h0.561v5.197H241.233z"/>
	<path fill="#777777" d="M241.233,254.995v-2.493c0-1.863,0.7-3.054,2.241-3.054c0.966,0,1.737,0.561,2.017,1.64h0.056
		c0.196-1.359,0.952-2.2,2.227-2.2c1.779,0,2.689,1.344,2.689,3.432v2.675H241.233z M245.295,252.754
		c0-1.891-0.616-2.661-1.835-2.661c-1.19,0-1.695,0.896-1.695,2.591v1.668h3.53V252.754z M249.932,252.488
		c0-1.836-0.672-2.97-2.157-2.97c-1.317,0-1.961,1.079-1.961,2.97v1.863h4.118V252.488z"/>
	<path fill="#777777" d="M247.299,242.757v3.656l3.166,1.093v0.644l-9.231-3.25v-0.645l9.231-3.25v0.672L247.299,242.757z
		 M246.752,242.939l-1.723,0.588c-1.092,0.378-2.059,0.7-3.194,1.022v0.056c1.135,0.322,2.102,0.644,3.194,1.022l1.723,0.588
		V242.939z"/>
	<path fill="#777777" d="M250.464,234.427l-4.244,2.507v1.961h4.244v0.644h-9.231v-2.647c0-1.835,0.672-3.025,2.438-3.025
		c1.471,0,2.325,0.911,2.507,2.367l4.286-2.549V234.427z M245.688,237.061c0-1.625-0.659-2.536-2.017-2.536
		c-1.387,0-1.891,0.911-1.891,2.536v1.835h3.908V237.061z"/>
	<path fill="#777777" d="M246.696,233.072v-3.082h0.546v3.082H246.696z"/>
	<path fill="#777777" d="M247.299,223.941v3.656l3.166,1.093v0.645l-9.231-3.25v-0.645l9.231-3.25v0.672L247.299,223.941z
		 M246.752,224.124l-1.723,0.588c-1.092,0.378-2.059,0.7-3.194,1.022v0.056c1.135,0.322,2.102,0.644,3.194,1.022l1.723,0.588
		V224.124z"/>
</g>
<g>
	<g opacity="0.1">
		<rect x="267.296" y="205.668" width="25.001" height="95.42"/>
	</g>
	<g>
		<rect x="267.296" y="204.668" fill="#F1F1F1" width="25.001" height="95.42"/>
	</g>
</g>
<g>
	<path fill="#777777" d="M283.799,281.974c0.756-0.673,1.246-1.64,1.246-2.704c0-1.414-0.756-2.297-1.849-2.297
		c-1.149,0-1.526,0.742-1.933,1.652l-0.631,1.401c-0.35,0.813-0.925,1.877-2.297,1.877c-1.331,0-2.269-1.148-2.269-2.689
		c0-1.106,0.504-2.003,1.106-2.563l0.434,0.364c-0.574,0.546-0.952,1.274-0.952,2.199c0,1.219,0.644,2.046,1.653,2.046
		c1.064,0,1.471-0.926,1.778-1.598l0.617-1.4c0.462-1.037,1.036-1.947,2.451-1.947c1.414,0,2.479,1.162,2.479,2.955
		c0,1.346-0.574,2.396-1.387,3.124L283.799,281.974z"/>
	<path fill="#777777" d="M276.234,274.385v-0.644h9.23v0.644H276.234z"/>
	<path fill="#777777" d="M276.234,271.025v-2.143c0-2.844,1.793-4.188,4.58-4.188c2.802,0,4.65,1.345,4.65,4.174v2.157H276.234z
		 M284.919,268.953c0-2.508-1.694-3.586-4.104-3.586c-2.395,0-4.034,1.078-4.034,3.586v1.428h8.138V268.953z"/>
	<path fill="#777777" d="M276.234,262.569v-5.057h0.56v4.413h3.489v-3.699h0.56v3.699h4.062v-4.553h0.561v5.196H276.234z"/>
	<path fill="#777777" d="M276.234,255.359v-2.493c0-1.862,0.7-3.054,2.241-3.054c0.966,0,1.737,0.561,2.017,1.639h0.057
		c0.195-1.358,0.952-2.199,2.227-2.199c1.779,0,2.689,1.345,2.689,3.431v2.676H276.234z M280.297,253.118
		c0-1.892-0.617-2.661-1.835-2.661c-1.19,0-1.695,0.896-1.695,2.592v1.666h3.53V253.118z M284.934,252.852
		c0-1.834-0.673-2.969-2.158-2.969c-1.316,0-1.961,1.079-1.961,2.969v1.863h4.119V252.852z"/>
	<path fill="#777777" d="M282.3,243.122v3.656l3.165,1.093v0.644l-9.23-3.25v-0.645l9.23-3.25v0.672L282.3,243.122z
		 M281.754,243.304l-1.724,0.588c-1.092,0.378-2.059,0.7-3.194,1.022v0.056c1.135,0.322,2.102,0.644,3.194,1.022l1.724,0.588
		V243.304z"/>
	<path fill="#777777" d="M285.465,234.791l-4.244,2.507v1.961h4.244v0.644h-9.23v-2.647c0-1.835,0.672-3.025,2.438-3.025
		c1.471,0,2.325,0.911,2.508,2.367l4.285-2.549V234.791z M280.689,237.425c0-1.625-0.659-2.536-2.018-2.536
		c-1.387,0-1.891,0.911-1.891,2.536v1.835h3.909V237.425z"/>
	<path fill="#777777" d="M281.697,233.436v-3.082h0.547v3.082H281.697z"/>
	<path fill="#777777" d="M276.234,228.452v-2.493c0-1.863,0.7-3.054,2.241-3.054c0.966,0,1.737,0.561,2.017,1.639h0.057
		c0.195-1.358,0.952-2.199,2.227-2.199c1.779,0,2.689,1.345,2.689,3.432v2.675H276.234z M280.297,226.21
		c0-1.891-0.617-2.661-1.835-2.661c-1.19,0-1.695,0.896-1.695,2.591v1.667h3.53V226.21z M284.934,225.944
		c0-1.835-0.673-2.969-2.158-2.969c-1.316,0-1.961,1.078-1.961,2.969v1.863h4.119V225.944z"/>
</g>
<g>
	<g opacity="0.1">
		<rect x="69.412" y="240.005" width="151.911" height="25.001"/>
	</g>
	<g>
		<rect x="69.412" y="239.005" fill="#F1F1F1" width="151.911" height="25.001"/>
	</g>
</g>
<g>
	<path fill="#777777" d="M121.899,247.775c1.064,0,1.905,0.532,2.395,1.106l-0.392,0.42c-0.49-0.561-1.163-0.938-2.003-0.938
		c-2.031,0-3.278,1.611-3.278,4.173c0,2.564,1.232,4.217,3.222,4.217c0.953,0,1.653-0.378,2.325-1.135l0.392,0.406
		c-0.714,0.813-1.555,1.316-2.745,1.316c-2.283,0-3.866-1.862-3.866-4.805C117.949,249.61,119.546,247.775,121.899,247.775z"/>
	<path fill="#777777" d="M125.509,252.523c0-2.913,1.583-4.748,3.796-4.748c2.227,0,3.81,1.835,3.81,4.748
		c0,2.928-1.583,4.818-3.81,4.818C127.092,257.342,125.509,255.451,125.509,252.523z M132.429,252.523
		c0-2.549-1.247-4.16-3.124-4.16s-3.124,1.611-3.124,4.16c0,2.564,1.247,4.23,3.124,4.23S132.429,255.088,132.429,252.523z"/>
	<path fill="#777777" d="M135.226,247.943h0.672l3.894,6.514l1.037,1.835h0.056c-0.028-0.896-0.084-1.793-0.084-2.689v-5.659h0.617
		v9.23h-0.672l-3.895-6.514l-1.036-1.834h-0.056c0.028,0.883,0.084,1.723,0.084,2.62v5.729h-0.616V247.943z"/>
	<path fill="#777777" d="M146.118,248.503h-2.941v-0.56h6.527v0.56h-2.941v8.67h-0.645V248.503z"/>
	<path fill="#777777" d="M151.465,247.943h5.057v0.56h-4.413v3.489h3.698v0.56h-3.698v4.062h4.553v0.561h-5.197V247.943z"/>
	<path fill="#777777" d="M158.675,247.943h0.672l3.894,6.514l1.037,1.835h0.056c-0.028-0.896-0.084-1.793-0.084-2.689v-5.659h0.617
		v9.23h-0.672l-3.895-6.514l-1.036-1.834h-0.056c0.028,0.883,0.084,1.723,0.084,2.62v5.729h-0.616V247.943z"/>
	<path fill="#777777" d="M169.568,248.503h-2.941v-0.56h6.527v0.56h-2.941v8.67h-0.645V248.503z"/>
</g>
<g>
	<g opacity="0.1">
		<rect x="69.412" y="276.006" width="151.911" height="25.002"/>
	</g>
	<g>
		<rect x="69.412" y="275.006" fill="#F1F1F1" width="151.911" height="25.002"/>
	</g>
</g>
<g>
	<path fill="#777777" d="M104.713,283.945h0.91l1.933,5.42l0.729,2.045h0.056l0.7-2.045l1.933-5.42h0.911v9.23h-0.63v-6.065
		c0-0.757,0.042-1.723,0.084-2.493h-0.056l-0.729,2.031l-1.975,5.519h-0.574l-1.989-5.519l-0.729-2.031h-0.056
		c0.042,0.771,0.084,1.736,0.084,2.493v6.065h-0.602V283.945z"/>
	<path fill="#777777" d="M118.743,290.01h-3.656l-1.093,3.166h-0.645l3.25-9.23h0.645l3.25,9.23h-0.672L118.743,290.01z
		 M118.561,289.464l-0.588-1.724c-0.378-1.092-0.7-2.059-1.022-3.193h-0.056c-0.322,1.135-0.644,2.102-1.022,3.193l-0.588,1.724
		H118.561z"/>
	<path fill="#777777" d="M121.96,283.945h0.644v9.23h-0.644V283.945z"/>
	<path fill="#777777" d="M125.32,283.945h0.672l3.894,6.514l1.037,1.834h0.056c-0.028-0.896-0.084-1.793-0.084-2.689v-5.658h0.617
		v9.23h-0.672l-3.895-6.514l-1.036-1.835h-0.056c0.028,0.883,0.084,1.724,0.084,2.62v5.729h-0.616V283.945z"/>
	<path fill="#777777" d="M133.426,289.408h3.082v0.546h-3.082V289.408z"/>
	<path fill="#777777" d="M138.41,283.945h2.493c1.863,0,3.054,0.699,3.054,2.24c0,0.967-0.561,1.737-1.639,2.018v0.057
		c1.358,0.195,2.199,0.951,2.199,2.227c0,1.779-1.345,2.689-3.432,2.689h-2.675V283.945z M140.651,288.007
		c1.891,0,2.661-0.616,2.661-1.835c0-1.19-0.896-1.695-2.591-1.695h-1.667v3.53H140.651z M140.917,292.644
		c1.835,0,2.969-0.673,2.969-2.157c0-1.316-1.078-1.961-2.969-1.961h-1.863v4.118H140.917z"/>
	<path fill="#777777" d="M145.914,288.525c0-2.914,1.583-4.748,3.796-4.748c2.227,0,3.81,1.834,3.81,4.748
		c0,2.928-1.583,4.818-3.81,4.818C147.496,293.344,145.914,291.453,145.914,288.525z M152.833,288.525
		c0-2.549-1.247-4.16-3.124-4.16s-3.124,1.611-3.124,4.16c0,2.563,1.247,4.23,3.124,4.23S152.833,291.089,152.833,288.525z"/>
	<path fill="#777777" d="M157.339,284.505h-2.941v-0.56h6.527v0.56h-2.941v8.671h-0.645V284.505z"/>
	<path fill="#777777" d="M164.675,284.505h-2.941v-0.56h6.527v0.56h-2.941v8.671h-0.645V284.505z"/>
	<path fill="#777777" d="M169.14,288.525c0-2.914,1.583-4.748,3.796-4.748c2.227,0,3.81,1.834,3.81,4.748
		c0,2.928-1.583,4.818-3.81,4.818C170.723,293.344,169.14,291.453,169.14,288.525z M176.059,288.525c0-2.549-1.247-4.16-3.124-4.16
		s-3.124,1.611-3.124,4.16c0,2.563,1.247,4.23,3.124,4.23S176.059,291.089,176.059,288.525z"/>
	<path fill="#777777" d="M178.855,283.945h0.91l1.933,5.42l0.729,2.045h0.056l0.7-2.045l1.933-5.42h0.911v9.23h-0.63v-6.065
		c0-0.757,0.042-1.723,0.084-2.493h-0.056l-0.729,2.031l-1.975,5.519h-0.574l-1.989-5.519l-0.729-2.031h-0.056
		c0.042,0.771,0.084,1.736,0.084,2.493v6.065h-0.602V283.945z"/>
</g>
<g>
	<g opacity="0.1">
		<rect x="0.001" y="100.001" width="292.001" height="25.001"/>
	</g>
	<g>
		<rect x="0.001" y="99.001" fill="#F1F1F1" width="292.001" height="25.001"/>
	</g>
</g>
<g>
	<path fill="#777777" d="M106.379,108.5h-2.941v-0.56h6.527v0.56h-2.941v8.671h-0.645V108.5z"/>
	<path fill="#777777" d="M110.844,112.52c0-2.914,1.583-4.749,3.796-4.749c2.227,0,3.81,1.835,3.81,4.749
		c0,2.927-1.583,4.818-3.81,4.818C112.427,117.338,110.844,115.447,110.844,112.52z M117.764,112.52c0-2.549-1.247-4.16-3.124-4.16
		s-3.124,1.611-3.124,4.16c0,2.563,1.247,4.23,3.124,4.23S117.764,115.083,117.764,112.52z"/>
	<path fill="#777777" d="M120.561,107.939h2.521c2.059,0,3.292,0.672,3.292,2.577c0,1.807-1.233,2.689-3.292,2.689h-1.877v3.964
		h-0.644V107.939z M122.928,112.66c1.877,0,2.788-0.63,2.788-2.144c0-1.555-0.911-2.031-2.788-2.031h-1.723v4.174H122.928z"/>
	<path fill="#777777" d="M127.084,113.402h3.082v0.546h-3.082V113.402z"/>
	<path fill="#777777" d="M132.068,107.939h2.521c2.059,0,3.292,0.672,3.292,2.577c0,1.807-1.233,2.689-3.292,2.689h-1.877v3.964
		h-0.644V107.939z M134.436,112.66c1.877,0,2.788-0.63,2.788-2.144c0-1.555-0.911-2.031-2.788-2.031h-1.723v4.174H134.436z"/>
	<path fill="#777777" d="M143.34,114.005h-3.656l-1.093,3.166h-0.645l3.25-9.231h0.645l3.25,9.231h-0.672L143.34,114.005z
		 M143.158,113.458l-0.588-1.723c-0.378-1.092-0.7-2.059-1.022-3.194h-0.056c-0.322,1.135-0.644,2.102-1.022,3.194l-0.588,1.723
		H143.158z"/>
	<path fill="#777777" d="M151.671,117.17l-2.507-4.244h-1.961v4.244h-0.644v-9.231h2.647c1.835,0,3.025,0.672,3.025,2.438
		c0,1.471-0.911,2.325-2.367,2.507l2.549,4.286H151.671z M149.037,112.394c1.625,0,2.536-0.659,2.536-2.017
		c0-1.387-0.911-1.891-2.536-1.891h-1.835v3.908H149.037z"/>
	<path fill="#777777" d="M158.404,114.005h-3.656l-1.093,3.166h-0.644l3.25-9.231h0.645l3.25,9.231h-0.672L158.404,114.005z
		 M158.222,113.458l-0.588-1.723c-0.378-1.092-0.7-2.059-1.022-3.194h-0.056c-0.322,1.135-0.644,2.102-1.022,3.194l-0.588,1.723
		H158.222z"/>
	<path fill="#777777" d="M161.622,107.939h0.644v8.67h4.258v0.561h-4.902V107.939z"/>
	<path fill="#777777" d="M168.16,107.939h0.644v8.67h4.258v0.561h-4.902V107.939z"/>
	<path fill="#777777" d="M178.956,114.005H175.3l-1.093,3.166h-0.645l3.25-9.231h0.645l3.25,9.231h-0.672L178.956,114.005z
		 M178.773,113.458l-0.588-1.723c-0.378-1.092-0.7-2.059-1.022-3.194h-0.056c-0.322,1.135-0.644,2.102-1.022,3.194l-0.588,1.723
		H178.773z"/>
	<path fill="#777777" d="M183.966,112.394l-2.578-4.455h0.701l1.513,2.717c0.252,0.42,0.448,0.756,0.756,1.261h0.056
		c0.266-0.504,0.434-0.84,0.686-1.261l1.513-2.717h0.658l-2.577,4.482l2.773,4.749h-0.701l-1.611-2.83
		c-0.252-0.462-0.518-0.911-0.854-1.471h-0.056c-0.294,0.56-0.533,1.008-0.785,1.471l-1.611,2.83h-0.658L183.966,112.394z"/>
</g>
<g>
	<g opacity="0.1">
		<rect x="0.001" y="135.002" width="292.001" height="25.001"/>
	</g>
	<g>
		<rect x="0.001" y="134.002" fill="#F1F1F1" width="292.001" height="25.001"/>
	</g>
</g>
<g>
	<path fill="#777777" d="M131.194,143.5h-2.941v-0.56h6.527v0.56h-2.941v8.671h-0.645V143.5z"/>
	<path fill="#777777" d="M135.659,147.521c0-2.914,1.583-4.749,3.796-4.749c2.227,0,3.81,1.835,3.81,4.749
		c0,2.927-1.583,4.818-3.81,4.818C137.242,152.339,135.659,150.448,135.659,147.521z M142.579,147.521
		c0-2.549-1.247-4.16-3.124-4.16s-3.124,1.611-3.124,4.16c0,2.563,1.247,4.23,3.124,4.23S142.579,150.084,142.579,147.521z"/>
	<path fill="#777777" d="M145.375,142.94h2.521c2.06,0,3.292,0.672,3.292,2.577c0,1.807-1.232,2.689-3.292,2.689h-1.877v3.964
		h-0.644V142.94z M147.743,147.661c1.877,0,2.788-0.63,2.788-2.144c0-1.555-0.911-2.031-2.788-2.031h-1.723v4.174H147.743z"/>
	<path fill="#777777" d="M151.898,148.403h3.082v0.546h-3.082V148.403z"/>
	<path fill="#777777" d="M161.029,149.006h-3.656l-1.093,3.166h-0.644l3.25-9.231h0.645l3.25,9.231h-0.672L161.029,149.006z
		 M160.847,148.459l-0.588-1.723c-0.378-1.092-0.7-2.059-1.022-3.194h-0.056c-0.322,1.135-0.644,2.102-1.022,3.194l-0.588,1.723
		H160.847z"/>
</g>
<g>
	<g opacity="0.1">
		<rect x="0.001" y="170.003" width="292.001" height="25.001"/>
	</g>
	<g>
		<rect x="0.001" y="169.003" fill="#F1F1F1" width="292.001" height="25.001"/>
	</g>
</g>
<g>
	<path fill="#777777" d="M130.83,178.501h-2.941v-0.56h6.527v0.56h-2.941v8.671h-0.645V178.501z"/>
	<path fill="#777777" d="M135.295,182.522c0-2.914,1.583-4.749,3.796-4.749c2.227,0,3.81,1.835,3.81,4.749
		c0,2.927-1.583,4.818-3.81,4.818C136.878,187.34,135.295,185.449,135.295,182.522z M142.214,182.522c0-2.549-1.247-4.16-3.124-4.16
		s-3.124,1.611-3.124,4.16c0,2.563,1.247,4.23,3.124,4.23S142.214,185.085,142.214,182.522z"/>
	<path fill="#777777" d="M145.011,177.941h2.521c2.06,0,3.292,0.672,3.292,2.577c0,1.807-1.232,2.689-3.292,2.689h-1.877v3.964
		h-0.644V177.941z M147.378,182.662c1.877,0,2.788-0.63,2.788-2.144c0-1.555-0.911-2.031-2.788-2.031h-1.723v4.174H147.378z"/>
	<path fill="#777777" d="M151.534,183.404h3.082v0.546h-3.082V183.404z"/>
	<path fill="#777777" d="M156.519,177.941h2.493c1.863,0,3.054,0.7,3.054,2.241c0,0.966-0.561,1.737-1.639,2.017v0.056
		c1.359,0.196,2.199,0.952,2.199,2.227c0,1.779-1.345,2.689-3.432,2.689h-2.675V177.941z M158.76,182.003
		c1.891,0,2.661-0.616,2.661-1.835c0-1.19-0.896-1.695-2.591-1.695h-1.667v3.53H158.76z M159.026,186.64
		c1.835,0,2.97-0.672,2.97-2.157c0-1.317-1.079-1.961-2.97-1.961h-1.863v4.118H159.026z"/>
</g>
<g>
	<g opacity="0.1">
		<rect x="0.001" y="311.089" width="292.001" height="25.001"/>
	</g>
	<g>
		<rect x="0.001" y="310.089" fill="#F1F1F1" width="292.001" height="25.001"/>
	</g>
</g>
<g>
	<path fill="#777777" d="M90.972,319.027h2.493c1.863,0,3.054,0.7,3.054,2.241c0,0.966-0.561,1.737-1.639,2.017v0.057
		c1.358,0.195,2.199,0.952,2.199,2.227c0,1.779-1.345,2.689-3.432,2.689h-2.675V319.027z M93.213,323.09
		c1.891,0,2.661-0.617,2.661-1.836c0-1.189-0.896-1.694-2.591-1.694h-1.667v3.53H93.213z M93.479,327.727
		c1.835,0,2.969-0.673,2.969-2.158c0-1.316-1.078-1.961-2.969-1.961h-1.863v4.119H93.479z"/>
	<path fill="#777777" d="M98.475,323.607c0-2.913,1.583-4.748,3.796-4.748c2.227,0,3.81,1.835,3.81,4.748
		c0,2.928-1.583,4.818-3.81,4.818C100.058,328.426,98.475,326.535,98.475,323.607z M105.395,323.607c0-2.549-1.247-4.16-3.124-4.16
		s-3.124,1.611-3.124,4.16c0,2.564,1.247,4.23,3.124,4.23S105.395,326.172,105.395,323.607z"/>
	<path fill="#777777" d="M109.9,319.588h-2.941v-0.561h6.527v0.561h-2.941v8.67H109.9V319.588z"/>
	<path fill="#777777" d="M117.236,319.588h-2.941v-0.561h6.527v0.561h-2.941v8.67h-0.645V319.588z"/>
	<path fill="#777777" d="M121.701,323.607c0-2.913,1.583-4.748,3.796-4.748c2.227,0,3.81,1.835,3.81,4.748
		c0,2.928-1.583,4.818-3.81,4.818C123.283,328.426,121.701,326.535,121.701,323.607z M128.62,323.607c0-2.549-1.247-4.16-3.124-4.16
		s-3.124,1.611-3.124,4.16c0,2.564,1.247,4.23,3.124,4.23S128.62,326.172,128.62,323.607z"/>
	<path fill="#777777" d="M131.417,319.027h0.91l1.933,5.421l0.729,2.045h0.056l0.7-2.045l1.933-5.421h0.911v9.23h-0.63v-6.064
		c0-0.757,0.042-1.723,0.084-2.494h-0.056l-0.729,2.031l-1.975,5.52h-0.574l-1.989-5.52l-0.729-2.031h-0.056
		c0.042,0.771,0.084,1.737,0.084,2.494v6.064h-0.602V319.027z"/>
	<path fill="#777777" d="M140.503,324.49h3.082v0.547h-3.082V324.49z"/>
	<path fill="#777777" d="M145.487,319.027h2.521c2.06,0,3.292,0.672,3.292,2.577c0,1.808-1.232,2.689-3.292,2.689h-1.877v3.964
		h-0.644V319.027z M147.854,323.748c1.877,0,2.788-0.631,2.788-2.144c0-1.555-0.911-2.03-2.788-2.03h-1.723v4.174H147.854z"/>
	<path fill="#777777" d="M156.759,325.093h-3.656l-1.093,3.165h-0.644l3.25-9.23h0.645l3.25,9.23h-0.672L156.759,325.093z
		 M156.577,324.547l-0.588-1.724c-0.378-1.093-0.7-2.06-1.022-3.194h-0.056c-0.322,1.135-0.644,2.102-1.022,3.194l-0.588,1.724
		H156.577z"/>
	<path fill="#777777" d="M165.09,328.258l-2.507-4.244h-1.961v4.244h-0.644v-9.23h2.647c1.835,0,3.025,0.672,3.025,2.438
		c0,1.471-0.911,2.325-2.367,2.508l2.549,4.285H165.09z M162.456,323.482c1.625,0,2.536-0.659,2.536-2.018
		c0-1.387-0.911-1.891-2.536-1.891h-1.835v3.908H162.456z"/>
	<path fill="#777777" d="M171.823,325.093h-3.656l-1.093,3.165h-0.645l3.25-9.23h0.645l3.25,9.23h-0.672L171.823,325.093z
		 M171.641,324.547l-0.588-1.724c-0.378-1.093-0.7-2.06-1.022-3.194h-0.056c-0.322,1.135-0.644,2.102-1.022,3.194l-0.588,1.724
		H171.641z"/>
	<path fill="#777777" d="M175.041,319.027h0.644v8.67h4.258v0.561h-4.902V319.027z"/>
	<path fill="#777777" d="M181.579,319.027h0.644v8.67h4.258v0.561h-4.902V319.027z"/>
	<path fill="#777777" d="M192.375,325.093h-3.656l-1.093,3.165h-0.645l3.25-9.23h0.645l3.25,9.23h-0.672L192.375,325.093z
		 M192.192,324.547l-0.588-1.724c-0.378-1.093-0.7-2.06-1.022-3.194h-0.056c-0.322,1.135-0.644,2.102-1.022,3.194l-0.588,1.724
		H192.192z"/>
	<path fill="#777777" d="M197.385,323.482l-2.578-4.455h0.701l1.513,2.717c0.252,0.421,0.448,0.757,0.756,1.262h0.056
		c0.266-0.505,0.434-0.841,0.686-1.262l1.513-2.717h0.658l-2.577,4.482l2.773,4.748h-0.701l-1.611-2.829
		c-0.252-0.462-0.518-0.911-0.854-1.471h-0.056c-0.294,0.56-0.533,1.009-0.785,1.471l-1.611,2.829h-0.658L197.385,323.482z"/>
</g>
<g>
	<g opacity="0.1">
		<rect x="0.001" y="346.09" width="292.001" height="25.001"/>
	</g>
	<g>
		<rect x="0.001" y="345.09" fill="#F1F1F1" width="292.001" height="25.001"/>
	</g>
</g>
<g>
	<path fill="#777777" d="M115.787,354.028h2.493c1.863,0,3.054,0.7,3.054,2.241c0,0.967-0.561,1.736-1.639,2.018v0.056
		c1.359,0.196,2.199,0.952,2.199,2.228c0,1.778-1.345,2.689-3.432,2.689h-2.675V354.028z M118.028,358.09
		c1.891,0,2.661-0.615,2.661-1.834c0-1.191-0.896-1.695-2.591-1.695h-1.667v3.529H118.028z M118.294,362.727
		c1.835,0,2.97-0.672,2.97-2.156c0-1.317-1.079-1.961-2.97-1.961h-1.863v4.117H118.294z"/>
	<path fill="#777777" d="M123.29,358.609c0-2.914,1.583-4.749,3.796-4.749c2.227,0,3.81,1.835,3.81,4.749
		c0,2.927-1.583,4.818-3.81,4.818C124.873,363.428,123.29,361.536,123.29,358.609z M130.209,358.609c0-2.55-1.247-4.16-3.124-4.16
		s-3.124,1.61-3.124,4.16c0,2.563,1.247,4.229,3.124,4.229S130.209,361.172,130.209,358.609z"/>
	<path fill="#777777" d="M134.715,354.588h-2.941v-0.56h6.527v0.56h-2.941v8.672h-0.645V354.588z"/>
	<path fill="#777777" d="M142.051,354.588h-2.941v-0.56h6.527v0.56h-2.941v8.672h-0.645V354.588z"/>
	<path fill="#777777" d="M146.516,358.609c0-2.914,1.583-4.749,3.796-4.749c2.227,0,3.81,1.835,3.81,4.749
		c0,2.927-1.583,4.818-3.81,4.818C148.099,363.428,146.516,361.536,146.516,358.609z M153.435,358.609c0-2.55-1.247-4.16-3.124-4.16
		s-3.124,1.61-3.124,4.16c0,2.563,1.247,4.229,3.124,4.229S153.435,361.172,153.435,358.609z"/>
	<path fill="#777777" d="M156.232,354.028h0.91l1.933,5.421l0.729,2.045h0.056l0.7-2.045l1.933-5.421h0.911v9.231h-0.63v-6.066
		c0-0.756,0.042-1.723,0.084-2.492h-0.056l-0.729,2.031l-1.975,5.518h-0.574l-1.989-5.518l-0.729-2.031h-0.056
		c0.042,0.77,0.084,1.736,0.084,2.492v6.066h-0.602V354.028z"/>
	<path fill="#777777" d="M165.317,359.491h3.082v0.546h-3.082V359.491z"/>
	<path fill="#777777" d="M174.448,360.094h-3.656l-1.093,3.166h-0.645l3.25-9.231h0.645l3.25,9.231h-0.672L174.448,360.094z
		 M174.266,359.547l-0.588-1.723c-0.378-1.092-0.7-2.059-1.022-3.193h-0.056c-0.322,1.135-0.644,2.102-1.022,3.193l-0.588,1.723
		H174.266z"/>
</g>
<g>
	<g opacity="0.1">
		<rect x="0.001" y="381.091" width="292.001" height="25.001"/>
	</g>
	<g>
		<rect x="0.001" y="380.091" fill="#F1F1F1" width="292.001" height="25.001"/>
	</g>
</g>
<g>
	<path fill="#777777" d="M115.422,389.029h2.493c1.863,0,3.054,0.7,3.054,2.241c0,0.966-0.561,1.737-1.639,2.017v0.057
		c1.359,0.195,2.199,0.952,2.199,2.227c0,1.779-1.345,2.689-3.432,2.689h-2.675V389.029z M117.664,393.092
		c1.891,0,2.661-0.617,2.661-1.836c0-1.189-0.896-1.694-2.591-1.694h-1.667v3.53H117.664z M117.93,397.729
		c1.835,0,2.97-0.673,2.97-2.158c0-1.316-1.079-1.961-2.97-1.961h-1.863v4.119H117.93z"/>
	<path fill="#777777" d="M122.926,393.609c0-2.913,1.583-4.748,3.796-4.748c2.227,0,3.81,1.835,3.81,4.748
		c0,2.928-1.583,4.818-3.81,4.818C124.509,398.428,122.926,396.537,122.926,393.609z M129.845,393.609
		c0-2.549-1.247-4.16-3.124-4.16s-3.124,1.611-3.124,4.16c0,2.564,1.247,4.23,3.124,4.23S129.845,396.174,129.845,393.609z"/>
	<path fill="#777777" d="M134.351,389.59h-2.941v-0.561h6.527v0.561h-2.941v8.67h-0.645V389.59z"/>
	<path fill="#777777" d="M141.687,389.59h-2.941v-0.561h6.527v0.561h-2.941v8.67h-0.645V389.59z"/>
	<path fill="#777777" d="M146.151,393.609c0-2.913,1.583-4.748,3.796-4.748c2.227,0,3.81,1.835,3.81,4.748
		c0,2.928-1.583,4.818-3.81,4.818C147.734,398.428,146.151,396.537,146.151,393.609z M153.071,393.609
		c0-2.549-1.247-4.16-3.124-4.16s-3.124,1.611-3.124,4.16c0,2.564,1.247,4.23,3.124,4.23S153.071,396.174,153.071,393.609z"/>
	<path fill="#777777" d="M155.868,389.029h0.91l1.933,5.421l0.729,2.045h0.056l0.7-2.045l1.933-5.421h0.911v9.23h-0.63v-6.064
		c0-0.757,0.042-1.723,0.084-2.494h-0.056l-0.729,2.031l-1.975,5.52h-0.574l-1.989-5.52l-0.729-2.031h-0.056
		c0.042,0.771,0.084,1.737,0.084,2.494v6.064h-0.602V389.029z"/>
	<path fill="#777777" d="M164.953,394.492h3.082v0.547h-3.082V394.492z"/>
	<path fill="#777777" d="M169.938,389.029h2.493c1.863,0,3.054,0.7,3.054,2.241c0,0.966-0.561,1.737-1.639,2.017v0.057
		c1.358,0.195,2.199,0.952,2.199,2.227c0,1.779-1.345,2.689-3.432,2.689h-2.675V389.029z M172.179,393.092
		c1.891,0,2.661-0.617,2.661-1.836c0-1.189-0.896-1.694-2.591-1.694h-1.667v3.53H172.179z M172.445,397.729
		c1.835,0,2.969-0.673,2.969-2.158c0-1.316-1.078-1.961-2.969-1.961h-1.863v4.119H172.445z"/>
</g>
<g>
	<g opacity="0.1">
		<rect x="0.001" y="416" width="292.001" height="25.001"/>
	</g>
	<g>
		<rect x="0.001" y="415" fill="#F1F1F1" width="292.001" height="25.001"/>
	</g>
</g>
<g>
	<path fill="#777777" d="M115.521,423.938h2.493c1.863,0,3.054,0.7,3.054,2.241c0,0.967-0.561,1.736-1.639,2.018v0.056
		c1.358,0.196,2.199,0.952,2.199,2.228c0,1.778-1.345,2.689-3.432,2.689h-2.675V423.938z M117.762,428
		c1.891,0,2.661-0.615,2.661-1.834c0-1.191-0.896-1.695-2.591-1.695h-1.667V428H117.762z M118.028,432.637
		c1.835,0,2.969-0.672,2.969-2.156c0-1.317-1.078-1.961-2.969-1.961h-1.863v4.117H118.028z"/>
	<path fill="#777777" d="M123.024,428.52c0-2.914,1.583-4.749,3.796-4.749c2.227,0,3.81,1.835,3.81,4.749
		c0,2.927-1.583,4.818-3.81,4.818C124.606,433.338,123.024,431.446,123.024,428.52z M129.943,428.52c0-2.55-1.247-4.16-3.124-4.16
		s-3.124,1.61-3.124,4.16c0,2.563,1.247,4.229,3.124,4.229S129.943,431.082,129.943,428.52z"/>
	<path fill="#777777" d="M134.449,424.498h-2.941v-0.56h6.527v0.56h-2.941v8.672h-0.645V424.498z"/>
	<path fill="#777777" d="M141.785,424.498h-2.941v-0.56h6.527v0.56h-2.941v8.672h-0.645V424.498z"/>
	<path fill="#777777" d="M146.25,428.52c0-2.914,1.583-4.749,3.796-4.749c2.227,0,3.81,1.835,3.81,4.749
		c0,2.927-1.583,4.818-3.81,4.818C147.832,433.338,146.25,431.446,146.25,428.52z M153.169,428.52c0-2.55-1.247-4.16-3.124-4.16
		s-3.124,1.61-3.124,4.16c0,2.563,1.247,4.229,3.124,4.229S153.169,431.082,153.169,428.52z"/>
	<path fill="#777777" d="M155.966,423.938h0.91l1.933,5.421l0.729,2.045h0.056l0.7-2.045l1.933-5.421h0.911v9.231h-0.63v-6.066
		c0-0.756,0.042-1.723,0.084-2.492h-0.056l-0.729,2.031l-1.975,5.518h-0.574l-1.989-5.518l-0.729-2.031h-0.056
		c0.042,0.77,0.084,1.736,0.084,2.492v6.066h-0.602V423.938z"/>
	<path fill="#777777" d="M165.052,429.401h3.082v0.546h-3.082V429.401z"/>
	<path fill="#777777" d="M173.397,423.771c1.064,0,1.905,0.532,2.395,1.106l-0.392,0.42c-0.49-0.561-1.163-0.938-2.003-0.938
		c-2.031,0-3.278,1.61-3.278,4.174c0,2.563,1.232,4.216,3.222,4.216c0.953,0,1.653-0.378,2.325-1.134l0.392,0.406
		c-0.714,0.813-1.555,1.316-2.745,1.316c-2.283,0-3.866-1.863-3.866-4.805C169.447,425.605,171.044,423.771,173.397,423.771z"/>
</g>
<g>
	<g opacity="0.1">
		<rect x="0.001" y="451.001" width="292.001" height="25.001"/>
	</g>
	<g>
		<rect x="0.001" y="450.001" fill="#F1F1F1" width="292.001" height="25.001"/>
	</g>
</g>
<g>
	<path fill="#777777" d="M123.276,458.939h5.028v0.561h-4.384v3.67h3.712v0.561h-3.712v4.439h-0.644V458.939z"/>
	<path fill="#777777" d="M129.226,463.52c0-2.913,1.583-4.748,3.796-4.748c2.227,0,3.81,1.835,3.81,4.748
		c0,2.928-1.583,4.818-3.81,4.818C130.809,468.338,129.226,466.447,129.226,463.52z M136.146,463.52c0-2.549-1.247-4.16-3.124-4.16
		s-3.124,1.611-3.124,4.16c0,2.564,1.247,4.23,3.124,4.23S136.146,466.084,136.146,463.52z"/>
	<path fill="#777777" d="M138.354,463.52c0-2.913,1.583-4.748,3.796-4.748c2.227,0,3.81,1.835,3.81,4.748
		c0,2.928-1.583,4.818-3.81,4.818C139.937,468.338,138.354,466.447,138.354,463.52z M145.273,463.52c0-2.549-1.247-4.16-3.124-4.16
		s-3.124,1.611-3.124,4.16c0,2.564,1.247,4.23,3.124,4.23S145.273,466.084,145.273,463.52z"/>
	<path fill="#777777" d="M149.779,459.5h-2.941v-0.561h6.527v0.561h-2.941v8.67h-0.645V459.5z"/>
	<path fill="#777777" d="M155.126,458.939h5.057v0.561h-4.413v3.488h3.698v0.56h-3.698v4.062h4.553v0.561h-5.197V458.939z"/>
	<path fill="#777777" d="M167.449,468.17l-2.507-4.244h-1.961v4.244h-0.644v-9.23h2.647c1.835,0,3.025,0.672,3.025,2.438
		c0,1.471-0.911,2.325-2.367,2.508l2.549,4.285H167.449z M164.815,463.395c1.625,0,2.536-0.659,2.536-2.018
		c0-1.387-0.911-1.891-2.536-1.891h-1.835v3.908H164.815z"/>
</g>
<g>
	<g opacity="0.1">
		<rect x="151.001" y="29.999" width="141" height="25.001"/>
	</g>
	<g>
		<rect x="151.001" y="28.999" fill="#F1F1F1" width="141" height="25.001"/>
	</g>
</g>
<g>
	<path fill="#777777" d="M192.208,38.498h-2.941v-0.56h6.527v0.56h-2.941v8.671h-0.645V38.498z"/>
	<path fill="#777777" d="M196.673,42.518c0-2.914,1.583-4.749,3.796-4.749c2.227,0,3.81,1.835,3.81,4.749
		c0,2.927-1.583,4.818-3.81,4.818C198.256,47.336,196.673,45.445,196.673,42.518z M203.593,42.518c0-2.549-1.247-4.16-3.124-4.16
		s-3.124,1.611-3.124,4.16c0,2.563,1.247,4.23,3.124,4.23S203.593,45.082,203.593,42.518z"/>
	<path fill="#777777" d="M205.801,42.518c0-2.914,1.583-4.749,3.796-4.749c2.227,0,3.81,1.835,3.81,4.749
		c0,2.927-1.583,4.818-3.81,4.818C207.384,47.336,205.801,45.445,205.801,42.518z M212.721,42.518c0-2.549-1.247-4.16-3.124-4.16
		s-3.124,1.611-3.124,4.16c0,2.563,1.247,4.23,3.124,4.23S212.721,45.082,212.721,42.518z"/>
	<path fill="#777777" d="M215.518,37.938h0.644v8.67h4.258v0.561h-4.902V37.938z"/>
	<path fill="#777777" d="M222.055,37.938h2.493c1.863,0,3.054,0.7,3.054,2.241c0,0.966-0.561,1.737-1.639,2.017v0.056
		c1.358,0.196,2.199,0.952,2.199,2.227c0,1.779-1.345,2.689-3.432,2.689h-2.675V37.938z M224.296,42
		c1.891,0,2.661-0.616,2.661-1.835c0-1.19-0.896-1.695-2.591-1.695h-1.667V42H224.296z M224.563,46.636
		c1.835,0,2.969-0.672,2.969-2.157c0-1.317-1.078-1.961-2.969-1.961h-1.863v4.118H224.563z"/>
	<path fill="#777777" d="M234.293,44.003h-3.656l-1.093,3.166H228.9l3.25-9.231h0.645l3.25,9.231h-0.672L234.293,44.003z
		 M234.111,43.457l-0.588-1.723c-0.378-1.092-0.7-2.059-1.022-3.194h-0.056c-0.322,1.135-0.644,2.102-1.022,3.194l-0.588,1.723
		H234.111z"/>
	<path fill="#777777" d="M242.624,47.168l-2.507-4.244h-1.961v4.244h-0.644v-9.231h2.647c1.835,0,3.025,0.672,3.025,2.438
		c0,1.471-0.911,2.325-2.367,2.507l2.549,4.286H242.624z M239.99,42.392c1.625,0,2.536-0.659,2.536-2.017
		c0-1.387-0.911-1.891-2.536-1.891h-1.835v3.908H239.99z"/>
	<path fill="#777777" d="M243.979,43.4h3.082v0.546h-3.082V43.4z"/>
	<path fill="#777777" d="M248.963,37.938h0.644v8.67h4.258v0.561h-4.902V37.938z"/>
</g>
<g>
	<path fill="#777777" d="M328.955,44.239c0.752,0.64,1.713,1.088,2.577,1.088c0.976,0,1.456-0.384,1.456-1.008
		c0-0.656-0.592-0.864-1.504-1.249l-1.361-0.576c-1.072-0.432-2.096-1.329-2.096-2.849c0-1.729,1.536-3.105,3.713-3.105
		c1.201,0,2.465,0.48,3.361,1.376l-1.201,1.489c-0.688-0.528-1.328-0.833-2.16-0.833c-0.816,0-1.328,0.353-1.328,0.945
		c0,0.64,0.688,0.864,1.584,1.232l1.345,0.544c1.265,0.512,2.065,1.361,2.065,2.833c0,1.729-1.441,3.233-3.938,3.233
		c-1.361,0-2.802-0.512-3.858-1.504L328.955,44.239z"/>
	<path fill="#777777" d="M336.795,36.828c0-0.72,0.576-1.216,1.36-1.216c0.8,0,1.36,0.496,1.36,1.216s-0.561,1.232-1.36,1.232
		C337.371,38.061,336.795,37.548,336.795,36.828z M336.986,39.229h2.354v7.939h-2.354V39.229z"/>
	<path fill="#777777" d="M344.283,39.037c0.881,0,1.408,0.32,1.953,0.833l-0.096-1.217v-2.705h2.353v11.221h-1.921l-0.16-0.784
		h-0.064c-0.56,0.56-1.344,0.976-2.112,0.976c-1.969,0-3.249-1.568-3.249-4.162C340.986,40.606,342.603,39.037,344.283,39.037z
		 M344.844,45.44c0.512,0,0.912-0.192,1.297-0.721V41.47c-0.416-0.384-0.881-0.512-1.313-0.512c-0.753,0-1.426,0.704-1.426,2.209
		C343.402,44.735,343.932,45.44,344.844,45.44z"/>
	<path fill="#777777" d="M353.852,39.037c2.257,0,3.377,1.649,3.377,3.81c0,0.416-0.048,0.8-0.096,0.993h-4.754
		c0.208,1.2,1.008,1.729,2.064,1.729c0.593,0,1.137-0.176,1.713-0.528l0.785,1.425c-0.816,0.56-1.873,0.896-2.818,0.896
		c-2.272,0-4.018-1.537-4.018-4.162C350.105,40.622,351.947,39.037,353.852,39.037z M355.229,42.382
		c0-0.912-0.385-1.552-1.329-1.552c-0.736,0-1.376,0.496-1.536,1.552H355.229z"/>
	<path fill="#777777" d="M358.858,35.948h2.353v2.753l-0.064,1.216c0.609-0.544,1.361-0.88,2.098-0.88
		c1.921,0,3.121,1.584,3.121,4.018c0,2.737-1.633,4.306-3.346,4.306c-0.703,0-1.439-0.352-2.064-1.024h-0.064l-0.191,0.833h-1.841
		V35.948z M362.476,45.44c0.816,0,1.473-0.705,1.473-2.337c0-1.425-0.433-2.145-1.376-2.145c-0.48,0-0.912,0.224-1.361,0.72v3.25
		C361.627,45.312,362.076,45.44,362.476,45.44z"/>
	<path fill="#777777" d="M372.028,42.063c-0.048-0.705-0.4-1.152-1.249-1.152c-0.672,0-1.344,0.272-2.112,0.72l-0.833-1.553
		c1.009-0.608,2.146-1.041,3.395-1.041c2.032,0,3.152,1.152,3.152,3.585v4.546h-1.92l-0.177-0.816h-0.048
		c-0.672,0.592-1.425,1.008-2.32,1.008c-1.441,0-2.354-1.056-2.354-2.401C367.563,43.295,368.891,42.382,372.028,42.063z
		 M370.716,45.536c0.544,0,0.896-0.256,1.313-0.672v-1.393c-1.681,0.224-2.226,0.704-2.226,1.313
		C369.803,45.296,370.155,45.536,370.716,45.536z"/>
	<path fill="#777777" d="M376.395,39.229h1.921l0.159,1.393h0.064c0.576-1.072,1.441-1.584,2.258-1.584
		c0.447,0,0.72,0.064,0.943,0.16l-0.384,2.033c-0.288-0.08-0.528-0.128-0.864-0.128c-0.592,0-1.328,0.384-1.744,1.457v4.61h-2.354
		V39.229z"/>
	<path fill="#777777" d="M386.282,36.732h2.353v8.451h4.131v1.985h-6.483V36.732z"/>
	<path fill="#777777" d="M398.556,42.063c-0.048-0.705-0.4-1.152-1.249-1.152c-0.672,0-1.344,0.272-2.112,0.72l-0.833-1.553
		c1.009-0.608,2.146-1.041,3.395-1.041c2.032,0,3.152,1.152,3.152,3.585v4.546h-1.92l-0.177-0.816h-0.048
		c-0.672,0.592-1.425,1.008-2.32,1.008c-1.441,0-2.354-1.056-2.354-2.401C394.09,43.295,395.418,42.382,398.556,42.063z
		 M397.243,45.536c0.544,0,0.896-0.256,1.313-0.672v-1.393c-1.681,0.224-2.226,0.704-2.226,1.313
		C396.33,45.296,396.683,45.536,397.243,45.536z"/>
	<path fill="#777777" d="M403.626,48.417c0.784,0,1.185-0.416,1.393-1.041l0.112-0.416l-3.058-7.731h2.369l1.136,3.41
		c0.225,0.72,0.417,1.473,0.625,2.257h0.064c0.176-0.752,0.352-1.504,0.544-2.257l0.96-3.41h2.258l-2.754,8.02
		c-0.752,2.001-1.601,3.025-3.473,3.025c-0.48,0-0.801-0.064-1.121-0.16l0.416-1.793C403.242,48.353,403.45,48.417,403.626,48.417z"
		/>
	<path fill="#777777" d="M414.539,39.037c2.001,0,3.857,1.521,3.857,4.162s-1.856,4.162-3.857,4.162
		c-2.017,0-3.873-1.521-3.873-4.162S412.522,39.037,414.539,39.037z M414.539,45.456c0.961,0,1.457-0.88,1.457-2.257
		s-0.496-2.257-1.457-2.257c-0.977,0-1.457,0.88-1.457,2.257S413.563,45.456,414.539,45.456z"/>
	<path fill="#777777" d="M419.93,39.229h2.354v4.626c0,1.137,0.304,1.505,0.992,1.505c0.592,0,0.943-0.256,1.408-0.88v-5.25h2.354
		v7.939h-1.922l-0.176-1.104h-0.048c-0.673,0.8-1.409,1.296-2.497,1.296c-1.729,0-2.465-1.216-2.465-3.201V39.229z"/>
	<path fill="#777777" d="M429.418,41.07h-1.089v-1.745l1.217-0.096l0.272-2.113h1.952v2.113h1.905v1.841h-1.905v3.186
		c0,0.896,0.4,1.265,1.024,1.265c0.256,0,0.545-0.08,0.752-0.16l0.369,1.712c-0.416,0.128-0.992,0.288-1.762,0.288
		c-1.969,0-2.736-1.232-2.736-3.073V41.07z"/>
	<path fill="#777777" d="M435.578,44.784c0.72,0.544,1.376,0.832,2.049,0.832c0.703,0,1.008-0.256,1.008-0.672
		c0-0.528-0.801-0.768-1.617-1.088c-0.96-0.368-2.096-1.024-2.096-2.337c0-1.473,1.2-2.481,3.041-2.481
		c1.217,0,2.113,0.496,2.801,1.008l-1.057,1.409c-0.576-0.416-1.12-0.672-1.68-0.672c-0.609,0-0.896,0.224-0.896,0.625
		c0,0.512,0.736,0.704,1.553,1.008c1.008,0.368,2.145,0.928,2.145,2.385c0,1.441-1.137,2.561-3.266,2.561
		c-1.041,0-2.241-0.448-3.041-1.104L435.578,44.784z"/>
</g>
<g>
	<g opacity="0.1">
		<rect x="327.051" y="65" width="12.5" height="59.999"/>
	</g>
	<g>
		<rect x="327.051" y="64" fill="#F1F1F1" width="12.5" height="59.999"/>
	</g>
</g>
<g>
	<g opacity="0.1">
		<rect x="349.551" y="65" width="12.5" height="59.999"/>
	</g>
	<g>
		<rect x="349.551" y="64" fill="#F1F1F1" width="12.5" height="59.999"/>
	</g>
</g>
<g>
	<path fill="#777777" d="M328.955,331.848c0.752,0.641,1.713,1.089,2.577,1.089c0.976,0,1.456-0.384,1.456-1.009
		c0-0.656-0.592-0.863-1.504-1.248l-1.361-0.576c-1.072-0.432-2.096-1.328-2.096-2.85c0-1.729,1.536-3.105,3.713-3.105
		c1.201,0,2.465,0.48,3.361,1.377l-1.201,1.488c-0.688-0.527-1.328-0.832-2.16-0.832c-0.816,0-1.328,0.353-1.328,0.945
		c0,0.64,0.688,0.863,1.584,1.232l1.345,0.543c1.265,0.513,2.065,1.361,2.065,2.834c0,1.729-1.441,3.232-3.938,3.232
		c-1.361,0-2.802-0.512-3.858-1.504L328.955,331.848z"/>
	<path fill="#777777" d="M336.795,324.438c0-0.721,0.576-1.217,1.36-1.217c0.8,0,1.36,0.496,1.36,1.217
		c0,0.72-0.561,1.232-1.36,1.232C337.371,325.67,336.795,325.157,336.795,324.438z M336.986,326.838h2.354v7.939h-2.354V326.838z"/>
	<path fill="#777777" d="M344.283,326.646c0.881,0,1.408,0.32,1.953,0.832l-0.096-1.217v-2.705h2.353v11.221h-1.921l-0.16-0.784
		h-0.064c-0.56,0.56-1.344,0.976-2.112,0.976c-1.969,0-3.249-1.568-3.249-4.161S342.603,326.646,344.283,326.646z M344.844,333.049
		c0.512,0,0.912-0.192,1.297-0.721v-3.249c-0.416-0.384-0.881-0.513-1.313-0.513c-0.753,0-1.426,0.705-1.426,2.209
		C343.402,332.344,343.932,333.049,344.844,333.049z"/>
	<path fill="#777777" d="M353.852,326.646c2.257,0,3.377,1.648,3.377,3.809c0,0.416-0.048,0.801-0.096,0.993h-4.754
		c0.208,1.2,1.008,1.729,2.064,1.729c0.593,0,1.137-0.177,1.713-0.528l0.785,1.425c-0.816,0.56-1.873,0.896-2.818,0.896
		c-2.272,0-4.018-1.536-4.018-4.161C350.105,328.23,351.947,326.646,353.852,326.646z M355.229,329.991
		c0-0.912-0.385-1.552-1.329-1.552c-0.736,0-1.376,0.496-1.536,1.552H355.229z"/>
	<path fill="#777777" d="M358.858,323.557h2.353v2.754l-0.064,1.216c0.609-0.544,1.361-0.88,2.098-0.88
		c1.921,0,3.121,1.584,3.121,4.018c0,2.736-1.633,4.305-3.346,4.305c-0.703,0-1.439-0.352-2.064-1.023h-0.064l-0.191,0.832h-1.841
		V323.557z M362.476,333.049c0.816,0,1.473-0.705,1.473-2.337c0-1.425-0.433-2.146-1.376-2.146c-0.48,0-0.912,0.225-1.361,0.721
		v3.25C361.627,332.92,362.076,333.049,362.476,333.049z"/>
	<path fill="#777777" d="M372.028,329.672c-0.048-0.705-0.4-1.152-1.249-1.152c-0.672,0-1.344,0.271-2.112,0.72l-0.833-1.553
		c1.009-0.608,2.146-1.04,3.395-1.04c2.032,0,3.152,1.152,3.152,3.585v4.546h-1.92l-0.177-0.816h-0.048
		c-0.672,0.592-1.425,1.008-2.32,1.008c-1.441,0-2.354-1.056-2.354-2.4C367.563,330.904,368.891,329.991,372.028,329.672z
		 M370.716,333.145c0.544,0,0.896-0.256,1.313-0.672v-1.393c-1.681,0.224-2.226,0.704-2.226,1.313
		C369.803,332.904,370.155,333.145,370.716,333.145z"/>
	<path fill="#777777" d="M376.395,326.838h1.921l0.159,1.393h0.064c0.576-1.072,1.441-1.584,2.258-1.584
		c0.447,0,0.72,0.063,0.943,0.16l-0.384,2.032c-0.288-0.08-0.528-0.128-0.864-0.128c-0.592,0-1.328,0.385-1.744,1.457v4.609h-2.354
		V326.838z"/>
	<path fill="#777777" d="M386.282,324.342h2.353v8.451h4.131v1.984h-6.483V324.342z"/>
	<path fill="#777777" d="M398.556,329.672c-0.048-0.705-0.4-1.152-1.249-1.152c-0.672,0-1.344,0.271-2.112,0.72l-0.833-1.553
		c1.009-0.608,2.146-1.04,3.395-1.04c2.032,0,3.152,1.152,3.152,3.585v4.546h-1.92l-0.177-0.816h-0.048
		c-0.672,0.592-1.425,1.008-2.32,1.008c-1.441,0-2.354-1.056-2.354-2.4C394.09,330.904,395.418,329.991,398.556,329.672z
		 M397.243,333.145c0.544,0,0.896-0.256,1.313-0.672v-1.393c-1.681,0.224-2.226,0.704-2.226,1.313
		C396.33,332.904,396.683,333.145,397.243,333.145z"/>
	<path fill="#777777" d="M403.626,336.025c0.784,0,1.185-0.416,1.393-1.04l0.112-0.416l-3.058-7.731h2.369l1.136,3.41
		c0.225,0.72,0.417,1.473,0.625,2.256h0.064c0.176-0.752,0.352-1.504,0.544-2.256l0.96-3.41h2.258l-2.754,8.02
		c-0.752,2.001-1.601,3.025-3.473,3.025c-0.48,0-0.801-0.064-1.121-0.16l0.416-1.793
		C403.242,335.962,403.45,336.025,403.626,336.025z"/>
	<path fill="#777777" d="M414.539,326.646c2.001,0,3.857,1.52,3.857,4.161s-1.856,4.161-3.857,4.161
		c-2.017,0-3.873-1.52-3.873-4.161S412.522,326.646,414.539,326.646z M414.539,333.064c0.961,0,1.457-0.881,1.457-2.257
		s-0.496-2.257-1.457-2.257c-0.977,0-1.457,0.881-1.457,2.257S413.563,333.064,414.539,333.064z"/>
	<path fill="#777777" d="M419.93,326.838h2.354v4.626c0,1.137,0.304,1.505,0.992,1.505c0.592,0,0.943-0.256,1.408-0.881v-5.25h2.354
		v7.939h-1.922l-0.176-1.104h-0.048c-0.673,0.8-1.409,1.296-2.497,1.296c-1.729,0-2.465-1.216-2.465-3.201V326.838z"/>
	<path fill="#777777" d="M429.418,328.679h-1.089v-1.745l1.217-0.096l0.272-2.113h1.952v2.113h1.905v1.841h-1.905v3.186
		c0,0.896,0.4,1.265,1.024,1.265c0.256,0,0.545-0.08,0.752-0.16l0.369,1.713c-0.416,0.128-0.992,0.287-1.762,0.287
		c-1.969,0-2.736-1.232-2.736-3.072V328.679z"/>
	<path fill="#777777" d="M435.578,332.393c0.72,0.544,1.376,0.832,2.049,0.832c0.703,0,1.008-0.256,1.008-0.672
		c0-0.528-0.801-0.769-1.617-1.089c-0.96-0.368-2.096-1.024-2.096-2.337c0-1.473,1.2-2.48,3.041-2.48
		c1.217,0,2.113,0.496,2.801,1.008l-1.057,1.408c-0.576-0.416-1.12-0.672-1.68-0.672c-0.609,0-0.896,0.225-0.896,0.625
		c0,0.512,0.736,0.703,1.553,1.008c1.008,0.368,2.145,0.928,2.145,2.385c0,1.441-1.137,2.561-3.266,2.561
		c-1.041,0-2.241-0.447-3.041-1.104L435.578,332.393z"/>
</g>
<g>
	<g opacity="0.1">
		<rect x="327.051" y="374.341" width="70.039" height="12.5"/>
	</g>
	<g>
		<rect x="327.051" y="373.341" fill="#F1F1F1" width="70.039" height="12.5"/>
	</g>
</g>
<g>
	<g opacity="0.1">
		<rect x="408.355" y="374.341" width="70.04" height="12.5"/>
	</g>
	<g>
		<rect x="408.355" y="373.341" fill="#F1F1F1" width="70.04" height="12.5"/>
	</g>
</g>
<g>
	<g opacity="0.1">
		<rect x="489.981" y="374.341" width="70.039" height="12.5"/>
	</g>
	<g>
		<rect x="489.981" y="373.341" fill="#F1F1F1" width="70.039" height="12.5"/>
	</g>
</g>
<g>
	<g opacity="0.1">
		<rect x="372.051" y="65" width="50.898" height="59.999"/>
	</g>
	<g>
		<rect x="372.051" y="64" fill="#FAFAFA" width="50.898" height="59.999"/>
	</g>
</g>
<g>
	<g opacity="0.1">
		<rect x="525.02" y="65" width="12.5" height="59.999"/>
	</g>
	<g>
		<rect x="525.02" y="64" fill="#F1F1F1" width="12.5" height="59.999"/>
	</g>
</g>
<g>
	<g opacity="0.1">
		<rect x="547.52" y="65" width="12.5" height="59.999"/>
	</g>
	<g>
		<rect x="547.52" y="64" fill="#F1F1F1" width="12.5" height="59.999"/>
	</g>
</g>
<g>
	<g opacity="0.1">
		<rect x="464.12" y="65" width="50.898" height="59.999"/>
	</g>
	<g>
		<rect x="464.12" y="64" fill="#FAFAFA" width="50.898" height="59.999"/>
	</g>
</g>
<g>
	<g opacity="0.1">
		<rect x="327.051" y="155.001" width="12.5" height="59.999"/>
	</g>
	<g>
		<rect x="327.051" y="154.001" fill="#F1F1F1" width="12.5" height="59.999"/>
	</g>
</g>
<g>
	<g opacity="0.1">
		<rect x="410.448" y="155.001" width="12.5" height="59.999"/>
	</g>
	<g>
		<rect x="410.448" y="154.001" fill="#F1F1F1" width="12.5" height="59.999"/>
	</g>
</g>
<g>
	<g opacity="0.1">
		<rect x="349.551" y="155" width="50.898" height="59.999"/>
	</g>
	<g>
		<rect x="349.551" y="154" fill="#FAFAFA" width="50.898" height="59.999"/>
	</g>
</g>
<g>
	<g opacity="0.1">
		<rect x="464.121" y="155.001" width="12.5" height="59.999"/>
	</g>
	<g>
		<rect x="464.121" y="154.001" fill="#F1F1F1" width="12.5" height="59.999"/>
	</g>
</g>
<g>
	<g opacity="0.1">
		<rect x="486.621" y="155" width="73.398" height="59.999"/>
	</g>
	<g>
		<rect x="486.621" y="154" fill="#FAFAFA" width="73.398" height="59.999"/>
	</g>
</g>
<g>
	<g opacity="0.1">
		<rect x="410.448" y="246.001" width="12.5" height="59.999"/>
	</g>
	<g>
		<rect x="410.448" y="245.001" fill="#F1F1F1" width="12.5" height="59.999"/>
	</g>
</g>
<g>
	<g opacity="0.1">
		<rect x="327.051" y="246" width="73.398" height="60"/>
	</g>
	<g>
		<rect x="327.051" y="245" fill="#FAFAFA" width="73.398" height="60"/>
	</g>
</g>
<g>
	<g opacity="0.1">
		<rect x="464.12" y="246" width="95.899" height="60"/>
	</g>
	<g>
		<rect x="464.12" y="245" fill="#FAFAFA" width="95.899" height="60"/>
	</g>
</g>
<g>
	<path fill="#777777" d="M328.604,353.541h2.881c2.354,0,3.762,0.77,3.762,2.945c0,2.065-1.408,3.074-3.762,3.074h-2.145v4.529
		h-0.736V353.541z M331.309,358.936c2.145,0,3.186-0.721,3.186-2.449c0-1.776-1.041-2.32-3.186-2.32h-1.969v4.77H331.309z"/>
	<path fill="#777777" d="M341.229,359.271c0.032-1.168-0.304-2.433-1.809-2.433c-1.04,0-1.937,0.513-2.449,0.896l-0.319-0.528
		c0.543-0.385,1.6-0.992,2.849-0.992c1.825,0,2.433,1.313,2.433,2.961v4.914h-0.592l-0.08-0.992h-0.032
		c-0.784,0.624-1.713,1.184-2.722,1.184c-1.216,0-2.24-0.656-2.24-2.112C336.268,360.473,337.82,359.656,341.229,359.271z
		 M338.621,363.674c0.88,0,1.664-0.432,2.608-1.248v-2.609c-3.153,0.367-4.226,1.104-4.226,2.32
		C337.004,363.242,337.74,363.674,338.621,363.674z"/>
	<path fill="#777777" d="M344.684,356.406h0.609l0.063,1.426h0.048c0.512-0.945,1.265-1.617,2.177-1.617
		c0.288,0,0.513,0.031,0.769,0.16l-0.16,0.641c-0.256-0.097-0.4-0.129-0.704-0.129c-0.688,0-1.505,0.528-2.097,1.969v5.234h-0.705
		V356.406z"/>
	<path fill="#777777" d="M353.918,359.271c0.031-1.168-0.305-2.433-1.809-2.433c-1.041,0-1.938,0.513-2.449,0.896l-0.32-0.528
		c0.544-0.385,1.601-0.992,2.85-0.992c1.824,0,2.432,1.313,2.432,2.961v4.914h-0.592l-0.08-0.992h-0.031
		c-0.785,0.624-1.713,1.184-2.722,1.184c-1.216,0-2.241-0.656-2.241-2.112C348.955,360.473,350.508,359.656,353.918,359.271z
		 M351.309,363.674c0.881,0,1.664-0.432,2.609-1.248v-2.609c-3.154,0.367-4.227,1.104-4.227,2.32
		C349.691,363.242,350.428,363.674,351.309,363.674z"/>
	<path fill="#777777" d="M357.371,352.581h0.705v10.581c0,0.336,0.144,0.496,0.336,0.496c0.064,0,0.128,0,0.288-0.033l0.128,0.576
		c-0.145,0.049-0.288,0.08-0.512,0.08c-0.625,0-0.945-0.383-0.945-1.216V352.581z"/>
	<path fill="#777777" d="M361.164,352.581h0.703v10.581c0,0.336,0.145,0.496,0.337,0.496c0.063,0,0.128,0,0.288-0.033l0.128,0.576
		c-0.144,0.049-0.288,0.08-0.513,0.08c-0.623,0-0.943-0.383-0.943-1.216V352.581z"/>
	<path fill="#777777" d="M367.66,356.215c1.825,0,2.945,1.297,2.945,3.553c0,0.192,0,0.385-0.031,0.576h-5.539
		c0.032,1.938,1.169,3.33,2.897,3.33c0.833,0,1.489-0.272,2.065-0.688l0.287,0.544c-0.607,0.369-1.296,0.752-2.416,0.752
		c-1.969,0-3.554-1.504-3.554-4.018C364.315,357.752,365.947,356.215,367.66,356.215z M369.934,359.801
		c0-1.969-0.881-2.979-2.257-2.979c-1.313,0-2.481,1.137-2.642,2.979H369.934z"/>
	<path fill="#777777" d="M372.684,352.581h0.703v10.581c0,0.336,0.145,0.496,0.337,0.496c0.063,0,0.128,0,0.288-0.033l0.128,0.576
		c-0.144,0.049-0.288,0.08-0.513,0.08c-0.623,0-0.943-0.383-0.943-1.216V352.581z"/>
</g>
<g>
	<g opacity="0.1">
		<rect x="327.051" y="419.341" width="149.57" height="12.5"/>
	</g>
	<g>
		<rect x="327.051" y="418.341" fill="#F1F1F1" width="149.57" height="12.5"/>
	</g>
</g>
<g>
	<g opacity="0.1">
		<rect x="489.981" y="419.341" width="70.039" height="12.5"/>
	</g>
	<g>
		<rect x="489.981" y="418.341" fill="#F1F1F1" width="70.039" height="12.5"/>
	</g>
</g>
<g>
	<path fill="#777777" d="M328.604,398.541h2.449c3.25,0,4.786,2.049,4.786,5.234c0,3.201-1.536,5.314-4.771,5.314h-2.465V398.541z
		 M330.973,408.466c2.865,0,4.098-1.937,4.098-4.69c0-2.736-1.232-4.609-4.098-4.609h-1.633v9.3H330.973z"/>
	<path fill="#777777" d="M340.989,401.215c1.856,0,3.457,1.473,3.457,4.049c0,2.546-1.601,4.018-3.457,4.018
		c-1.841,0-3.441-1.472-3.441-4.018C337.548,402.688,339.148,401.215,340.989,401.215z M340.989,408.658
		c1.552,0,2.721-1.377,2.721-3.395c0-2.032-1.169-3.425-2.721-3.425c-1.553,0-2.705,1.393-2.705,3.425
		C338.284,407.281,339.437,408.658,340.989,408.658z"/>
	<path fill="#777777" d="M346.635,401.406h0.705v4.834c0,1.633,0.512,2.401,1.744,2.401c0.912,0,1.585-0.479,2.481-1.568v-5.667
		h0.704v7.684h-0.592l-0.08-1.28h-0.032c-0.753,0.88-1.553,1.472-2.608,1.472c-1.586,0-2.322-0.96-2.322-2.944V401.406z"/>
	<path fill="#777777" d="M355.211,397.581h0.705v3.329l-0.032,1.505c0.784-0.656,1.712-1.2,2.657-1.2
		c2.049,0,3.072,1.537,3.072,3.922c0,2.608-1.584,4.145-3.393,4.145c-0.736,0-1.585-0.352-2.305-0.912h-0.032l-0.08,0.721h-0.593
		V397.581z M358.188,408.658c1.553,0,2.673-1.441,2.673-3.521c0-1.889-0.672-3.298-2.433-3.298c-0.769,0-1.601,0.448-2.513,1.265
		v4.562C356.764,408.386,357.596,408.658,358.188,408.658z"/>
	<path fill="#777777" d="M363.916,397.581h0.703v10.581c0,0.336,0.145,0.496,0.337,0.496c0.063,0,0.128,0,0.288-0.033l0.128,0.576
		c-0.144,0.049-0.288,0.08-0.513,0.08c-0.623,0-0.943-0.383-0.943-1.216V397.581z"/>
	<path fill="#777777" d="M370.412,401.215c1.825,0,2.945,1.297,2.945,3.553c0,0.192,0,0.385-0.031,0.576h-5.539
		c0.032,1.938,1.169,3.33,2.897,3.33c0.833,0,1.489-0.272,2.065-0.688l0.287,0.544c-0.607,0.369-1.296,0.752-2.416,0.752
		c-1.969,0-3.554-1.504-3.554-4.018C367.067,402.752,368.699,401.215,370.412,401.215z M372.686,404.801
		c0-1.969-0.881-2.979-2.257-2.979c-1.313,0-2.481,1.137-2.642,2.979H372.686z"/>
</g>
<g>
	<g opacity="0.1">
		<rect x="327.051" y="464.341" width="232.969" height="12.5"/>
	</g>
	<g>
		<rect x="327.051" y="463.341" fill="#F1F1F1" width="232.969" height="12.5"/>
	</g>
</g>
<g>
	<path fill="#777777" d="M328.268,452.186c0.769,0.863,1.873,1.424,3.09,1.424c1.616,0,2.625-0.864,2.625-2.113
		c0-1.313-0.849-1.744-1.889-2.208l-1.602-0.721c-0.928-0.399-2.145-1.056-2.145-2.625c0-1.521,1.313-2.593,3.073-2.593
		c1.265,0,2.289,0.576,2.929,1.265l-0.416,0.496c-0.624-0.656-1.456-1.089-2.513-1.089c-1.393,0-2.337,0.736-2.337,1.889
		c0,1.217,1.057,1.682,1.824,2.033l1.602,0.704c1.184,0.528,2.225,1.185,2.225,2.802c0,1.616-1.328,2.832-3.377,2.832
		c-1.537,0-2.737-0.656-3.57-1.584L328.268,452.186z"/>
	<path fill="#777777" d="M337.035,447.016h-1.199v-0.545l1.216-0.064l0.097-2.225h0.607v2.225h2.225v0.609h-2.225v5.01
		c0,0.977,0.24,1.633,1.297,1.633c0.288,0,0.688-0.113,0.961-0.24l0.191,0.576c-0.448,0.16-0.928,0.287-1.248,0.287
		c-1.488,0-1.922-0.943-1.922-2.32V447.016z"/>
	<path fill="#777777" d="M346.046,449.271c0.032-1.168-0.304-2.433-1.809-2.433c-1.04,0-1.937,0.513-2.449,0.896l-0.319-0.528
		c0.543-0.385,1.6-0.992,2.849-0.992c1.825,0,2.433,1.313,2.433,2.961v4.914h-0.592l-0.08-0.992h-0.032
		c-0.784,0.624-1.713,1.184-2.722,1.184c-1.216,0-2.24-0.656-2.24-2.112C341.084,450.473,342.637,449.656,346.046,449.271z
		 M343.438,453.674c0.88,0,1.664-0.432,2.608-1.248v-2.609c-3.153,0.367-4.226,1.104-4.226,2.32
		C341.82,453.242,342.557,453.674,343.438,453.674z"/>
	<path fill="#777777" d="M352.365,446.215c1.056,0,1.744,0.464,2.256,0.944l-0.416,0.496c-0.496-0.464-1.072-0.816-1.824-0.816
		c-1.568,0-2.785,1.393-2.785,3.425c0,2.018,1.104,3.395,2.785,3.395c0.816,0,1.521-0.4,2.049-0.881l0.367,0.48
		c-0.656,0.592-1.472,1.023-2.448,1.023c-1.985,0-3.489-1.472-3.489-4.018C348.859,447.688,350.492,446.215,352.365,446.215z"/>
	<path fill="#777777" d="M356.684,442.581h0.704v8.483h0.032l3.793-4.658h0.816l-2.496,3.041l2.912,4.643h-0.783l-2.545-4.113
		l-1.729,2.017v2.097h-0.704V442.581z"/>
	<path fill="#777777" d="M366.621,446.215c1.824,0,2.945,1.297,2.945,3.553c0,0.192,0,0.385-0.033,0.576h-5.537
		c0.031,1.938,1.168,3.33,2.896,3.33c0.832,0,1.488-0.272,2.064-0.688l0.289,0.544c-0.609,0.369-1.297,0.752-2.418,0.752
		c-1.969,0-3.553-1.504-3.553-4.018C363.275,447.752,364.908,446.215,366.621,446.215z M368.894,449.801
		c0-1.969-0.88-2.979-2.257-2.979c-1.313,0-2.48,1.137-2.641,2.979H368.894z"/>
	<path fill="#777777" d="M374.412,446.215c0.928,0,1.553,0.352,2.32,0.944l-0.031-1.409v-3.169h0.704v11.509h-0.608l-0.064-0.992
		h-0.047c-0.625,0.624-1.473,1.184-2.498,1.184c-1.936,0-3.185-1.424-3.185-4.018C371.003,447.783,372.588,446.215,374.412,446.215z
		 M374.284,453.658c0.849,0,1.601-0.449,2.417-1.266v-4.561c-0.816-0.721-1.488-0.993-2.241-0.993c-1.536,0-2.705,1.489-2.705,3.425
		C371.755,452.297,372.651,453.658,374.284,453.658z"/>
</g>
</svg>
