<?xml version="1.0" encoding="utf-8"?>
<!-- Generator: Adobe Illustrator 16.0.3, SVG Export Plug-In . SVG Version: 6.00 Build 0)  -->
<!DOCTYPE svg PUBLIC "-//W3C//DTD SVG 1.1//EN" "http://www.w3.org/Graphics/SVG/1.1/DTD/svg11.dtd">
<svg version="1.1" id="logo" xmlns="http://www.w3.org/2000/svg" xmlns:xlink="http://www.w3.org/1999/xlink" x="0px" y="0px"
	 width="200px" height="60px" viewBox="-9.71 0.123 200 60" enable-background="new -9.71 0.123 200 60" xml:space="preserve">
<circle fill="#025C98" cx="11.908" cy="30.123" r="21.618"/>
<polyline fill="#FFFFFF" points="9.178,37.734 20.876,37.734 12.04,29.807 20.876,21.88 4.255,21.88 4.255,37.104 4.255,37.734 "/>
<g>
	<path fill="#2A3339" d="M48.774,35.438c-1.574-1.53-2.36-3.393-2.36-5.587c0-2.193,0.786-4.051,2.36-5.571
		c1.573-1.52,3.393-2.28,5.459-2.28c2.064,0,3.825,0.578,5.281,1.734c0.172,0.107,0.268,0.268,0.289,0.481
		c0.021,0.214-0.043,0.407-0.192,0.578c-0.321,0.364-0.675,0.407-1.06,0.128c-1.178-0.942-2.602-1.413-4.271-1.413
		c-1.669,0-3.141,0.621-4.414,1.862c-1.274,1.241-1.91,2.741-1.91,4.495c0,1.756,0.636,3.249,1.91,4.479
		c1.273,1.231,2.74,1.847,4.398,1.847s3.088-0.46,4.287-1.381c0.385-0.278,0.743-0.226,1.075,0.161
		c0.332,0.385,0.272,0.749-0.177,1.091c-1.434,1.113-3.082,1.67-4.944,1.67C52.257,37.734,50.347,36.97,48.774,35.438z"/>
	<path fill="#2A3339" d="M77.752,22.226C77.902,22.076,78.084,22,78.298,22s0.396,0.076,0.546,0.225
		c0.149,0.15,0.225,0.332,0.225,0.546v14.192c0,0.214-0.075,0.396-0.225,0.546c-0.15,0.149-0.332,0.225-0.546,0.225
		s-0.396-0.075-0.546-0.225c-0.15-0.149-0.225-0.332-0.225-0.546V34.62c-0.686,0.963-1.547,1.723-2.585,2.279
		s-2.146,0.835-3.323,0.835c-2.055,0-3.811-0.771-5.266-2.312c-1.457-1.541-2.184-3.394-2.184-5.556s0.727-4.014,2.184-5.555
		C67.809,22.771,69.565,22,71.619,22c1.177,0,2.285,0.279,3.323,0.835c1.038,0.557,1.899,1.306,2.585,2.248v-2.312
		C77.528,22.558,77.602,22.375,77.752,22.226z M65.711,29.867c0,1.756,0.583,3.249,1.75,4.479c1.166,1.231,2.558,1.847,4.174,1.847
		s3.002-0.615,4.158-1.847c1.156-1.23,1.734-2.724,1.734-4.479c0-1.754-0.578-3.254-1.734-4.495s-2.542-1.862-4.158-1.862
		s-3.008,0.621-4.174,1.862C66.294,26.613,65.711,28.113,65.711,29.867z"/>
	<path fill="#2A3339" d="M85.747,43.546V22.771c0-0.214,0.074-0.396,0.225-0.546C86.121,22.076,86.304,22,86.518,22
		s0.401,0.076,0.562,0.225c0.161,0.15,0.241,0.332,0.241,0.546v2.28c0.685-0.942,1.552-1.686,2.601-2.232S92.094,22,93.293,22
		c2.119,0,3.917,0.76,5.395,2.28c1.477,1.521,2.215,3.355,2.215,5.507s-0.738,3.997-2.215,5.539
		c-1.478,1.541-3.275,2.312-5.395,2.312c-1.199,0-2.323-0.277-3.372-0.834s-1.916-1.307-2.601-2.248v8.99
		c0,0.214-0.08,0.396-0.241,0.547c-0.16,0.148-0.348,0.225-0.562,0.225s-0.396-0.076-0.546-0.225
		C85.822,43.942,85.747,43.76,85.747,43.546z M87.321,29.547v0.256c0,1.734,0.589,3.211,1.766,4.432
		c1.178,1.22,2.58,1.841,4.207,1.862c1.669-0.021,3.093-0.643,4.271-1.862c1.177-1.221,1.766-2.697,1.766-4.432
		c0-1.733-0.589-3.205-1.766-4.415c-1.178-1.209-2.58-1.814-4.207-1.814s-3.023,0.578-4.189,1.734
		C88,26.464,87.385,27.877,87.321,29.547z"/>
	<path fill="#2A3339" d="M111.658,22c0.193,0,0.369,0.081,0.53,0.241c0.16,0.16,0.24,0.337,0.24,0.53c0,0.192-0.08,0.369-0.24,0.53
		c-0.161,0.161-0.337,0.241-0.53,0.241h-2.022v11.463c0,0.343,0.133,0.621,0.401,0.835c0.268,0.214,0.508,0.321,0.723,0.321
		c0.213,0,0.406,0.086,0.577,0.257c0.172,0.171,0.257,0.353,0.257,0.546c0,0.192-0.085,0.369-0.257,0.529
		c-0.171,0.161-0.353,0.241-0.546,0.241c-0.792,0-1.45-0.257-1.975-0.771s-0.786-1.166-0.786-1.959V23.542h-1.959
		c-0.343,0-0.557-0.064-0.643-0.193c-0.085-0.128-0.128-0.299-0.128-0.514c0-0.213,0.011-0.364,0.032-0.449
		c0.064-0.257,0.31-0.386,0.738-0.386h1.959v-5.844c0-0.192,0.08-0.369,0.24-0.53c0.161-0.161,0.343-0.241,0.546-0.241
		s0.391,0.08,0.563,0.241c0.171,0.161,0.257,0.337,0.257,0.53V22H111.658z"/>
	<path fill="#2A3339" d="M119.461,31.313v-8.573c0-0.214,0.075-0.396,0.225-0.546c0.149-0.149,0.332-0.225,0.546-0.225
		s0.396,0.075,0.546,0.225c0.149,0.15,0.225,0.332,0.225,0.546v8.573c0,1.349,0.471,2.494,1.413,3.436
		c0.941,0.942,2.076,1.424,3.403,1.445c1.349-0.021,2.499-0.503,3.452-1.445c0.952-0.941,1.429-2.087,1.429-3.436v-8.573
		c0-0.214,0.08-0.396,0.241-0.546c0.16-0.149,0.348-0.225,0.562-0.225s0.396,0.075,0.546,0.225c0.149,0.15,0.225,0.332,0.225,0.546
		v8.573c0,1.777-0.626,3.291-1.878,4.544c-1.253,1.252-2.768,1.878-4.544,1.878c-1.777,0-3.286-0.626-4.527-1.878
		C120.082,34.604,119.461,33.09,119.461,31.313z"/>
	<path fill="#2A3339" d="M139.465,36.964V22.803c0-0.213,0.074-0.396,0.225-0.545c0.149-0.15,0.332-0.225,0.546-0.225
		s0.396,0.075,0.546,0.225c0.149,0.15,0.225,0.332,0.225,0.545v3.468c0.085-0.172,0.16-0.3,0.225-0.386
		c1.648-2.568,3.746-3.853,6.294-3.853c0.214,0,0.396,0.075,0.546,0.225c0.149,0.15,0.225,0.332,0.225,0.545
		c0,0.214-0.075,0.396-0.225,0.546c-0.15,0.15-0.332,0.225-0.546,0.225c-1.713,0-3.232,0.856-4.56,2.568
		c-0.771,1.027-1.402,2.248-1.895,3.66c-0.043,0.086-0.064,0.172-0.064,0.258v6.903c0,0.214-0.075,0.396-0.225,0.546
		c-0.15,0.149-0.332,0.225-0.546,0.225s-0.396-0.075-0.546-0.225C139.539,37.36,139.465,37.178,139.465,36.964z"/>
	<path fill="#2A3339" d="M167.657,29.322v0.128c0,0.214-0.075,0.386-0.225,0.514c-0.15,0.128-0.332,0.192-0.546,0.192h-12.908
		c0.086,1.713,0.717,3.147,1.895,4.303c1.177,1.156,2.579,1.734,4.207,1.734c1.048,0,2.022-0.257,2.922-0.771
		c0.898-0.514,1.615-1.209,2.151-2.088c0.257-0.428,0.599-0.513,1.027-0.257c0.428,0.3,0.514,0.664,0.257,1.093
		c-0.686,1.091-1.59,1.958-2.714,2.6c-1.123,0.643-2.339,0.964-3.644,0.964c-2.12,0-3.924-0.765-5.411-2.296
		c-1.488-1.53-2.231-3.382-2.231-5.555s0.743-4.03,2.231-5.571c1.487-1.541,3.265-2.312,5.33-2.312s3.815,0.702,5.25,2.104
		S167.487,27.246,167.657,29.322z M163.933,24.987c-1.113-0.963-2.403-1.445-3.869-1.445c-1.467,0-2.756,0.477-3.869,1.429
		c-1.113,0.953-1.819,2.179-2.119,3.677h11.912C165.731,27.17,165.046,25.95,163.933,24.987z"/>
</g>
</svg>
